<svg version="1.1" viewBox="0.0 0.0 600.0 371.0" fill="none" stroke="none" stroke-linecap="square" stroke-miterlimit="10" width="600" height="371" xmlns:xlink="http://www.w3.org/1999/xlink" xmlns="http://www.w3.org/2000/svg"><path fill="#ffffff" d="M0 0L600.0 0L600.0 371.0L0 371.0L0 0Z" fill-rule="nonzero"/><path stroke="#333333" stroke-width="1.0" stroke-linecap="butt" d="M59.5 331.5L581.5 331.5" fill-rule="nonzero"/><path stroke="#cccccc" stroke-width="1.0" stroke-linecap="butt" d="M59.5 264.5L581.5 264.5" fill-rule="nonzero"/><path stroke="#cccccc" stroke-width="1.0" stroke-linecap="butt" d="M59.5 196.5L581.5 196.5" fill-rule="nonzero"/><path stroke="#cccccc" stroke-width="1.0" stroke-linecap="butt" d="M59.5 129.5L581.5 129.5" fill-rule="nonzero"/><path stroke="#cccccc" stroke-width="1.0" stroke-linecap="butt" d="M59.5 62.5L581.5 62.5" fill-rule="nonzero"/><clipPath id="id_0"><path d="M59.55 62.416668L581.45 62.416668L581.45 331.45L59.55 331.45L59.55 62.416668Z" clip-rule="nonzero"/></clipPath><path stroke="#000000" stroke-width="2.0" stroke-linecap="butt" stroke-opacity="0.0" clip-path="url(#id_0)" d="M180.0 331.0L102.0 331.0L102.0 132.0C102.0 130.89543 102.89543 130.0 104.0 130.0L178.0 130.0C179.10457 130.0 180.0 130.89543 180.0 132.0Z" fill-rule="nonzero"/><path fill="#4285f4" clip-path="url(#id_0)" d="M180.0 331.0L102.0 331.0L102.0 132.0C102.0 130.89543 102.89543 130.0 104.0 130.0L178.0 130.0C179.10457 130.0 180.0 130.89543 180.0 132.0Z" fill-rule="nonzero"/><path stroke="#000000" stroke-width="2.0" stroke-linecap="butt" stroke-opacity="0.0" clip-path="url(#id_0)" d="M300.0 331.0L222.0 331.0L222.0 192.0C222.0 190.89543 222.89543 190.0 224.0 190.0L298.0 190.0C299.10458 190.0 300.0 190.89543 300.0 192.0Z" fill-rule="nonzero"/><path fill="#4285f4" clip-path="url(#id_0)" d="M300.0 331.0L222.0 331.0L222.0 192.0C222.0 190.89543 222.89543 190.0 224.0 190.0L298.0 190.0C299.10458 190.0 300.0 190.89543 300.0 192.0Z" fill-rule="nonzero"/><path stroke="#000000" stroke-width="2.0" stroke-linecap="butt" stroke-opacity="0.0" clip-path="url(#id_0)" d="M419.0 331.0L341.0 331.0L341.0 188.0C341.0 186.89543 341.89542 186.0 343.0 186.0L417.0 186.0C418.10458 186.0 419.0 186.89543 419.0 188.0Z" fill-rule="nonzero"/><path fill="#4285f4" clip-path="url(#id_0)" d="M419.0 331.0L341.0 331.0L341.0 188.0C341.0 186.89543 341.89542 186.0 343.0 186.0L417.0 186.0C418.10458 186.0 419.0 186.89543 419.0 188.0Z" fill-rule="nonzero"/><path stroke="#000000" stroke-width="2.0" stroke-linecap="butt" stroke-opacity="0.0" clip-path="url(#id_0)" d="M539.0 331.0L461.0 331.0L461.0 186.0C461.0 184.89543 461.89542 184.0 463.0 184.0L537.0 184.0C538.10455 184.0 539.0 184.89543 539.0 186.0Z" fill-rule="nonzero"/><path fill="#4285f4" clip-path="url(#id_0)" d="M539.0 331.0L461.0 331.0L461.0 186.0C461.0 184.89543 461.89542 184.0 463.0 184.0L537.0 184.0C538.10455 184.0 539.0 184.89543 539.0 186.0Z" fill-rule="nonzero"/><path stroke="#4285f4" stroke-width="3.0" stroke-linejoin="round" stroke-linecap="round" d="M125.78125 141.60414L126.59375 141.60414Q127.375 141.58852 127.8125 141.19789Q128.25 140.80727 128.25 140.13539Q128.25 138.63539 126.75 138.63539Q126.046875 138.63539 125.625 139.04164Q125.21875 139.44789 125.21875 140.10414L124.125 140.10414Q124.125 139.08852 124.859375 138.41664Q125.609375 137.74477 126.75 137.74477Q127.953125 137.74477 128.64062 138.38539Q129.32812 139.02602 129.32812 140.16664Q129.32812 140.72914 128.96875 141.24477Q128.60938 141.76039 127.984375 142.02602Q128.6875 142.24477 129.0625 142.76039Q129.45312 143.27602 129.45312 144.02602Q129.45312 145.16664 128.70312 145.85414Q127.953125 146.52602 126.75 146.52602Q125.5625 146.52602 124.796875 145.86977Q124.046875 145.21352 124.046875 144.15102L125.140625 144.15102Q125.140625 144.82289 125.578125 145.22914Q126.015625 145.63539 126.765625 145.63539Q127.546875 145.63539 127.953125 145.22914Q128.375 144.80727 128.375 144.04164Q128.375 143.30727 127.921875 142.91664Q127.46875 142.51039 126.59375 142.49477L125.78125 142.49477L125.78125 141.60414ZM136.5625 142.76039Q136.5625 144.66664 135.90625 145.60414Q135.26562 146.52602 133.875 146.52602Q132.51562 146.52602 131.85938 145.61977Q131.20312 144.71352 131.17188 142.90102L131.17188 141.46352Q131.17188 139.57289 131.8125 138.66664Q132.46875 137.74477 133.85938 137.74477Q135.23438 137.74477 135.89062 138.63539Q136.54688 139.51039 136.5625 141.35414L136.5625 142.76039ZM135.46875 141.27602Q135.46875 139.90102 135.07812 139.27602Q134.70312 138.63539 133.85938 138.63539Q133.03125 138.63539 132.64062 139.27602Q132.26562 139.90102 132.26562 141.19789L132.26562 142.93227Q132.26562 144.30727 132.65625 144.97914Q133.0625 145.63539 133.875 145.63539Q134.67188 145.63539 135.0625 145.01039Q135.45312 144.38539 135.46875 143.05727L135.46875 141.27602ZM143.5625 142.76039Q143.5625 144.66664 142.90625 145.60414Q142.26562 146.52602 140.875 146.52602Q139.51562 146.52602 138.85938 145.61977Q138.20312 144.71352 138.17188 142.90102L138.17188 141.46352Q138.17188 139.57289 138.8125 138.66664Q139.46875 137.74477 140.85938 137.74477Q142.23438 137.74477 142.89062 138.63539Q143.54688 139.51039 143.5625 141.35414L143.5625 142.76039ZM142.46875 141.27602Q142.46875 139.90102 142.07812 139.27602Q141.70312 138.63539 140.85938 138.63539Q140.03125 138.63539 139.64062 139.27602Q139.26562 139.90102 139.26562 141.19789L139.26562 142.93227Q139.26562 144.30727 139.65625 144.97914Q140.0625 145.63539 140.875 145.63539Q141.67188 145.63539 142.0625 145.01039Q142.45312 144.38539 142.46875 143.05727L142.46875 141.27602ZM148.76562 146.40102L147.6875 146.40102L147.6875 139.18227L145.5 139.97914L145.5 138.99477L148.60938 137.82289L148.76562 137.82289L148.76562 146.40102ZM155.76562 146.40102L154.6875 146.40102L154.6875 139.18227L152.5 139.97914L152.5 138.99477L155.60938 137.82289L155.76562 137.82289L155.76562 146.40102Z" fill-rule="nonzero"/><path fill="#ffffff" d="M125.78125 141.60414L126.59375 141.60414Q127.375 141.58852 127.8125 141.19789Q128.25 140.80727 128.25 140.13539Q128.25 138.63539 126.75 138.63539Q126.046875 138.63539 125.625 139.04164Q125.21875 139.44789 125.21875 140.10414L124.125 140.10414Q124.125 139.08852 124.859375 138.41664Q125.609375 137.74477 126.75 137.74477Q127.953125 137.74477 128.64062 138.38539Q129.32812 139.02602 129.32812 140.16664Q129.32812 140.72914 128.96875 141.24477Q128.60938 141.76039 127.984375 142.02602Q128.6875 142.24477 129.0625 142.76039Q129.45312 143.27602 129.45312 144.02602Q129.45312 145.16664 128.70312 145.85414Q127.953125 146.52602 126.75 146.52602Q125.5625 146.52602 124.796875 145.86977Q124.046875 145.21352 124.046875 144.15102L125.140625 144.15102Q125.140625 144.82289 125.578125 145.22914Q126.015625 145.63539 126.765625 145.63539Q127.546875 145.63539 127.953125 145.22914Q128.375 144.80727 128.375 144.04164Q128.375 143.30727 127.921875 142.91664Q127.46875 142.51039 126.59375 142.49477L125.78125 142.49477L125.78125 141.60414ZM136.5625 142.76039Q136.5625 144.66664 135.90625 145.60414Q135.26562 146.52602 133.875 146.52602Q132.51562 146.52602 131.85938 145.61977Q131.20312 144.71352 131.17188 142.90102L131.17188 141.46352Q131.17188 139.57289 131.8125 138.66664Q132.46875 137.74477 133.85938 137.74477Q135.23438 137.74477 135.89062 138.63539Q136.54688 139.51039 136.5625 141.35414L136.5625 142.76039ZM135.46875 141.27602Q135.46875 139.90102 135.07812 139.27602Q134.70312 138.63539 133.85938 138.63539Q133.03125 138.63539 132.64062 139.27602Q132.26562 139.90102 132.26562 141.19789L132.26562 142.93227Q132.26562 144.30727 132.65625 144.97914Q133.0625 145.63539 133.875 145.63539Q134.67188 145.63539 135.0625 145.01039Q135.45312 144.38539 135.46875 143.05727L135.46875 141.27602ZM143.5625 142.76039Q143.5625 144.66664 142.90625 145.60414Q142.26562 146.52602 140.875 146.52602Q139.51562 146.52602 138.85938 145.61977Q138.20312 144.71352 138.17188 142.90102L138.17188 141.46352Q138.17188 139.57289 138.8125 138.66664Q139.46875 137.74477 140.85938 137.74477Q142.23438 137.74477 142.89062 138.63539Q143.54688 139.51039 143.5625 141.35414L143.5625 142.76039ZM142.46875 141.27602Q142.46875 139.90102 142.07812 139.27602Q141.70312 138.63539 140.85938 138.63539Q140.03125 138.63539 139.64062 139.27602Q139.26562 139.90102 139.26562 141.19789L139.26562 142.93227Q139.26562 144.30727 139.65625 144.97914Q140.0625 145.63539 140.875 145.63539Q141.67188 145.63539 142.0625 145.01039Q142.45312 144.38539 142.46875 143.05727L142.46875 141.27602ZM148.76562 146.40102L147.6875 146.40102L147.6875 139.18227L145.5 139.97914L145.5 138.99477L148.60938 137.82289L148.76562 137.82289L148.76562 146.40102ZM155.76562 146.40102L154.6875 146.40102L154.6875 139.18227L152.5 139.97914L152.5 138.99477L155.60938 137.82289L155.76562 137.82289L155.76562 146.40102Z" fill-rule="nonzero"/><path stroke="#4285f4" stroke-width="3.0" stroke-linejoin="round" stroke-linecap="round" d="M249.79688 207.28998L244.20312 207.28998L244.20312 206.50873L247.15625 203.22748Q247.8125 202.47748 248.0625 202.02435Q248.3125 201.5556 248.3125 201.0556Q248.3125 200.38373 247.90625 199.96185Q247.51562 199.52435 246.82812 199.52435Q246.03125 199.52435 245.57812 199.9931Q245.125 200.44623 245.125 201.27435L244.04688 201.27435Q244.04688 200.08685 244.79688 199.3681Q245.5625 198.63373 246.82812 198.63373Q248.03125 198.63373 248.71875 199.25873Q249.40625 199.88373 249.40625 200.9306Q249.40625 202.1806 247.79688 203.9306L245.51562 206.39935L249.79688 206.39935L249.79688 207.28998ZM256.5625 203.64935Q256.5625 205.5556 255.90625 206.4931Q255.26562 207.41498 253.875 207.41498Q252.51562 207.41498 251.85938 206.50873Q251.20312 205.60248 251.17188 203.78998L251.17188 202.35248Q251.17188 200.46185 251.8125 199.5556Q252.46875 198.63373 253.85938 198.63373Q255.23438 198.63373 255.89062 199.52435Q256.54688 200.39935 256.5625 202.2431L256.5625 203.64935ZM255.46875 202.16498Q255.46875 200.78998 255.07812 200.16498Q254.70312 199.52435 253.85938 199.52435Q253.03125 199.52435 252.64062 200.16498Q252.26562 200.78998 252.26562 202.08685L252.26562 203.82123Q252.26562 205.19623 252.65625 205.8681Q253.0625 206.52435 253.875 206.52435Q254.67188 206.52435 255.0625 205.89935Q255.45312 205.27435 255.46875 203.94623L255.46875 202.16498ZM262.35938 203.53998Q262.03125 203.94623 261.54688 204.19623Q261.07812 204.4306 260.51562 204.4306Q259.78125 204.4306 259.23438 204.07123Q258.6875 203.71185 258.39062 203.0556Q258.09375 202.38373 258.09375 201.58685Q258.09375 200.7431 258.40625 200.0556Q258.73438 199.3681 259.32812 199.00873Q259.9375 198.63373 260.73438 198.63373Q262.0 198.63373 262.71875 199.58685Q263.45312 200.53998 263.45312 202.16498L263.45312 202.47748Q263.45312 204.97748 262.46875 206.1181Q261.48438 207.25873 259.5 207.28998L259.28125 207.28998L259.28125 206.38373L259.51562 206.38373Q260.85938 206.35248 261.57812 205.6806Q262.29688 205.00873 262.35938 203.53998ZM260.6875 203.53998Q261.23438 203.53998 261.6875 203.21185Q262.15625 202.8681 262.375 202.38373L262.375 201.94623Q262.375 200.88373 261.90625 200.21185Q261.4375 199.53998 260.73438 199.53998Q260.01562 199.53998 259.57812 200.08685Q259.15625 200.63373 259.15625 201.53998Q259.15625 202.41498 259.5625 202.97748Q259.98438 203.53998 260.6875 203.53998ZM265.70312 203.00873L266.14062 198.75873L270.51562 198.75873L270.51562 199.75873L267.0625 199.75873L266.79688 202.08685Q267.4375 201.71185 268.23438 201.71185Q269.39062 201.71185 270.07812 202.4931Q270.76562 203.25873 270.76562 204.57123Q270.76562 205.88373 270.04688 206.64935Q269.34375 207.41498 268.0625 207.41498Q266.9375 207.41498 266.21875 206.78998Q265.5 206.14935 265.40625 205.03998L266.42188 205.03998Q266.53125 205.77435 266.95312 206.14935Q267.375 206.52435 268.0625 206.52435Q268.8125 206.52435 269.25 206.00873Q269.6875 205.4931 269.6875 204.58685Q269.6875 203.72748 269.21875 203.21185Q268.75 202.69623 267.96875 202.69623Q267.26562 202.69623 266.85938 202.9931L266.57812 203.22748L265.70312 203.00873ZM277.39062 200.97748Q277.39062 201.6181 277.04688 202.1181Q276.70312 202.6181 276.14062 202.89935Q276.79688 203.1806 277.1875 203.7431Q277.57812 204.28998 277.57812 204.9931Q277.57812 206.08685 276.82812 206.75873Q276.09375 207.41498 274.875 207.41498Q273.64062 207.41498 272.89062 206.75873Q272.15625 206.08685 272.15625 204.9931Q272.15625 204.28998 272.53125 203.7431Q272.90625 203.1806 273.57812 202.89935Q273.01562 202.6181 272.6875 202.1181Q272.35938 201.6181 272.35938 200.97748Q272.35938 199.89935 273.04688 199.27435Q273.73438 198.63373 274.875 198.63373Q276.0 198.63373 276.6875 199.27435Q277.39062 199.89935 277.39062 200.97748ZM276.5 204.96185Q276.5 204.2431 276.04688 203.8056Q275.59375 203.35248 274.85938 203.35248Q274.125 203.35248 273.67188 203.8056Q273.23438 204.2431 273.23438 204.97748Q273.23438 205.69623 273.67188 206.1181Q274.10938 206.52435 274.875 206.52435Q275.625 206.52435 276.0625 206.10248Q276.5 205.6806 276.5 204.96185ZM274.875 199.52435Q274.23438 199.52435 273.82812 199.9306Q273.4375 200.32123 273.4375 201.00873Q273.4375 201.64935 273.82812 202.0556Q274.21875 202.46185 274.85938 202.46185Q275.51562 202.46185 275.90625 202.0556Q276.29688 201.64935 276.29688 201.00873Q276.29688 200.35248 275.89062 199.94623Q275.48438 199.52435 274.875 199.52435Z" fill-rule="nonzero"/><path fill="#ffffff" d="M249.79688 207.28998L244.20312 207.28998L244.20312 206.50873L247.15625 203.22748Q247.8125 202.47748 248.0625 202.02435Q248.3125 201.5556 248.3125 201.0556Q248.3125 200.38373 247.90625 199.96185Q247.51562 199.52435 246.82812 199.52435Q246.03125 199.52435 245.57812 199.9931Q245.125 200.44623 245.125 201.27435L244.04688 201.27435Q244.04688 200.08685 244.79688 199.3681Q245.5625 198.63373 246.82812 198.63373Q248.03125 198.63373 248.71875 199.25873Q249.40625 199.88373 249.40625 200.9306Q249.40625 202.1806 247.79688 203.9306L245.51562 206.39935L249.79688 206.39935L249.79688 207.28998ZM256.5625 203.64935Q256.5625 205.5556 255.90625 206.4931Q255.26562 207.41498 253.875 207.41498Q252.51562 207.41498 251.85938 206.50873Q251.20312 205.60248 251.17188 203.78998L251.17188 202.35248Q251.17188 200.46185 251.8125 199.5556Q252.46875 198.63373 253.85938 198.63373Q255.23438 198.63373 255.89062 199.52435Q256.54688 200.39935 256.5625 202.2431L256.5625 203.64935ZM255.46875 202.16498Q255.46875 200.78998 255.07812 200.16498Q254.70312 199.52435 253.85938 199.52435Q253.03125 199.52435 252.64062 200.16498Q252.26562 200.78998 252.26562 202.08685L252.26562 203.82123Q252.26562 205.19623 252.65625 205.8681Q253.0625 206.52435 253.875 206.52435Q254.67188 206.52435 255.0625 205.89935Q255.45312 205.27435 255.46875 203.94623L255.46875 202.16498ZM262.35938 203.53998Q262.03125 203.94623 261.54688 204.19623Q261.07812 204.4306 260.51562 204.4306Q259.78125 204.4306 259.23438 204.07123Q258.6875 203.71185 258.39062 203.0556Q258.09375 202.38373 258.09375 201.58685Q258.09375 200.7431 258.40625 200.0556Q258.73438 199.3681 259.32812 199.00873Q259.9375 198.63373 260.73438 198.63373Q262.0 198.63373 262.71875 199.58685Q263.45312 200.53998 263.45312 202.16498L263.45312 202.47748Q263.45312 204.97748 262.46875 206.1181Q261.48438 207.25873 259.5 207.28998L259.28125 207.28998L259.28125 206.38373L259.51562 206.38373Q260.85938 206.35248 261.57812 205.6806Q262.29688 205.00873 262.35938 203.53998ZM260.6875 203.53998Q261.23438 203.53998 261.6875 203.21185Q262.15625 202.8681 262.375 202.38373L262.375 201.94623Q262.375 200.88373 261.90625 200.21185Q261.4375 199.53998 260.73438 199.53998Q260.01562 199.53998 259.57812 200.08685Q259.15625 200.63373 259.15625 201.53998Q259.15625 202.41498 259.5625 202.97748Q259.98438 203.53998 260.6875 203.53998ZM265.70312 203.00873L266.14062 198.75873L270.51562 198.75873L270.51562 199.75873L267.0625 199.75873L266.79688 202.08685Q267.4375 201.71185 268.23438 201.71185Q269.39062 201.71185 270.07812 202.4931Q270.76562 203.25873 270.76562 204.57123Q270.76562 205.88373 270.04688 206.64935Q269.34375 207.41498 268.0625 207.41498Q266.9375 207.41498 266.21875 206.78998Q265.5 206.14935 265.40625 205.03998L266.42188 205.03998Q266.53125 205.77435 266.95312 206.14935Q267.375 206.52435 268.0625 206.52435Q268.8125 206.52435 269.25 206.00873Q269.6875 205.4931 269.6875 204.58685Q269.6875 203.72748 269.21875 203.21185Q268.75 202.69623 267.96875 202.69623Q267.26562 202.69623 266.85938 202.9931L266.57812 203.22748L265.70312 203.00873ZM277.39062 200.97748Q277.39062 201.6181 277.04688 202.1181Q276.70312 202.6181 276.14062 202.89935Q276.79688 203.1806 277.1875 203.7431Q277.57812 204.28998 277.57812 204.9931Q277.57812 206.08685 276.82812 206.75873Q276.09375 207.41498 274.875 207.41498Q273.64062 207.41498 272.89062 206.75873Q272.15625 206.08685 272.15625 204.9931Q272.15625 204.28998 272.53125 203.7431Q272.90625 203.1806 273.57812 202.89935Q273.01562 202.6181 272.6875 202.1181Q272.35938 201.6181 272.35938 200.97748Q272.35938 199.89935 273.04688 199.27435Q273.73438 198.63373 274.875 198.63373Q276.0 198.63373 276.6875 199.27435Q277.39062 199.89935 277.39062 200.97748ZM276.5 204.96185Q276.5 204.2431 276.04688 203.8056Q275.59375 203.35248 274.85938 203.35248Q274.125 203.35248 273.67188 203.8056Q273.23438 204.2431 273.23438 204.97748Q273.23438 205.69623 273.67188 206.1181Q274.10938 206.52435 274.875 206.52435Q275.625 206.52435 276.0625 206.10248Q276.5 205.6806 276.5 204.96185ZM274.875 199.52435Q274.23438 199.52435 273.82812 199.9306Q273.4375 200.32123 273.4375 201.00873Q273.4375 201.64935 273.82812 202.0556Q274.21875 202.46185 274.85938 202.46185Q275.51562 202.46185 275.90625 202.0556Q276.29688 201.64935 276.29688 201.00873Q276.29688 200.35248 275.89062 199.94623Q275.48438 199.52435 274.875 199.52435Z" fill-rule="nonzero"/><path stroke="#4285f4" stroke-width="3.0" stroke-linejoin="round" stroke-linecap="round" d="M368.79688 203.14687L363.20312 203.14687L363.20312 202.36562L366.15625 199.08437Q366.8125 198.33437 367.0625 197.88124Q367.3125 197.41249 367.3125 196.91249Q367.3125 196.24062 366.90625 195.81874Q366.51562 195.38124 365.82812 195.38124Q365.03125 195.38124 364.57812 195.84999Q364.125 196.30312 364.125 197.13124L363.04688 197.13124Q363.04688 195.94374 363.79688 195.22499Q364.5625 194.49062 365.82812 194.49062Q367.03125 194.49062 367.71875 195.11562Q368.40625 195.74062 368.40625 196.78749Q368.40625 198.03749 366.79688 199.78749L364.51562 202.25624L368.79688 202.25624L368.79688 203.14687ZM373.76562 203.14687L372.6875 203.14687L372.6875 195.92812L370.5 196.72499L370.5 195.74062L373.60938 194.56874L373.76562 194.56874L373.76562 203.14687ZM377.70312 198.86562L378.14062 194.61562L382.51562 194.61562L382.51562 195.61562L379.0625 195.61562L378.79688 197.94374Q379.4375 197.56874 380.23438 197.56874Q381.39062 197.56874 382.07812 198.34999Q382.76562 199.11562 382.76562 200.42812Q382.76562 201.74062 382.04688 202.50624Q381.34375 203.27187 380.0625 203.27187Q378.9375 203.27187 378.21875 202.64687Q377.5 202.00624 377.40625 200.89687L378.42188 200.89687Q378.53125 201.63124 378.95312 202.00624Q379.375 202.38124 380.0625 202.38124Q380.8125 202.38124 381.25 201.86562Q381.6875 201.34999 381.6875 200.44374Q381.6875 199.58437 381.21875 199.06874Q380.75 198.55312 379.96875 198.55312Q379.26562 198.55312 378.85938 198.84999L378.57812 199.08437L377.70312 198.86562ZM389.71875 195.22499L386.1875 203.14687L385.04688 203.14687L388.5625 195.50624L383.95312 195.50624L383.95312 194.61562L389.71875 194.61562L389.71875 195.22499ZM395.78125 200.28749L396.96875 200.28749L396.96875 201.16249L395.78125 201.16249L395.78125 203.14687L394.70312 203.14687L394.70312 201.16249L390.8125 201.16249L390.8125 200.52187L394.625 194.61562L395.78125 194.61562L395.78125 200.28749ZM392.04688 200.28749L394.70312 200.28749L394.70312 196.09999L394.5625 196.33437L392.04688 200.28749Z" fill-rule="nonzero"/><path fill="#ffffff" d="M368.79688 203.14687L363.20312 203.14687L363.20312 202.36562L366.15625 199.08437Q366.8125 198.33437 367.0625 197.88124Q367.3125 197.41249 367.3125 196.91249Q367.3125 196.24062 366.90625 195.81874Q366.51562 195.38124 365.82812 195.38124Q365.03125 195.38124 364.57812 195.84999Q364.125 196.30312 364.125 197.13124L363.04688 197.13124Q363.04688 195.94374 363.79688 195.22499Q364.5625 194.49062 365.82812 194.49062Q367.03125 194.49062 367.71875 195.11562Q368.40625 195.74062 368.40625 196.78749Q368.40625 198.03749 366.79688 199.78749L364.51562 202.25624L368.79688 202.25624L368.79688 203.14687ZM373.76562 203.14687L372.6875 203.14687L372.6875 195.92812L370.5 196.72499L370.5 195.74062L373.60938 194.56874L373.76562 194.56874L373.76562 203.14687ZM377.70312 198.86562L378.14062 194.61562L382.51562 194.61562L382.51562 195.61562L379.0625 195.61562L378.79688 197.94374Q379.4375 197.56874 380.23438 197.56874Q381.39062 197.56874 382.07812 198.34999Q382.76562 199.11562 382.76562 200.42812Q382.76562 201.74062 382.04688 202.50624Q381.34375 203.27187 380.0625 203.27187Q378.9375 203.27187 378.21875 202.64687Q377.5 202.00624 377.40625 200.89687L378.42188 200.89687Q378.53125 201.63124 378.95312 202.00624Q379.375 202.38124 380.0625 202.38124Q380.8125 202.38124 381.25 201.86562Q381.6875 201.34999 381.6875 200.44374Q381.6875 199.58437 381.21875 199.06874Q380.75 198.55312 379.96875 198.55312Q379.26562 198.55312 378.85938 198.84999L378.57812 199.08437L377.70312 198.86562ZM389.71875 195.22499L386.1875 203.14687L385.04688 203.14687L388.5625 195.50624L383.95312 195.50624L383.95312 194.61562L389.71875 194.61562L389.71875 195.22499ZM395.78125 200.28749L396.96875 200.28749L396.96875 201.16249L395.78125 201.16249L395.78125 203.14687L394.70312 203.14687L394.70312 201.16249L390.8125 201.16249L390.8125 200.52187L394.625 194.61562L395.78125 194.61562L395.78125 200.28749ZM392.04688 200.28749L394.70312 200.28749L394.70312 196.09999L394.5625 196.33437L392.04688 200.28749Z" fill-rule="nonzero"/><path stroke="#4285f4" stroke-width="3.0" stroke-linejoin="round" stroke-linecap="round" d="M488.79688 201.03496L483.20312 201.03496L483.20312 200.25371L486.15625 196.97246Q486.8125 196.22246 487.0625 195.76933Q487.3125 195.30058 487.3125 194.80058Q487.3125 194.12871 486.90625 193.70683Q486.51562 193.26933 485.82812 193.26933Q485.03125 193.26933 484.57812 193.73808Q484.125 194.19121 484.125 195.01933L483.04688 195.01933Q483.04688 193.83183 483.79688 193.11308Q484.5625 192.37871 485.82812 192.37871Q487.03125 192.37871 487.71875 193.00371Q488.40625 193.62871 488.40625 194.67558Q488.40625 195.92558 486.79688 197.67558L484.51562 200.14433L488.79688 200.14433L488.79688 201.03496ZM493.76562 201.03496L492.6875 201.03496L492.6875 193.81621L490.5 194.61308L490.5 193.62871L493.60938 192.45683L493.76562 192.45683L493.76562 201.03496ZM502.39062 194.72246Q502.39062 195.36308 502.04688 195.86308Q501.70312 196.36308 501.14062 196.64433Q501.79688 196.92558 502.1875 197.48808Q502.57812 198.03496 502.57812 198.73808Q502.57812 199.83183 501.82812 200.50371Q501.09375 201.15996 499.875 201.15996Q498.64062 201.15996 497.89062 200.50371Q497.15625 199.83183 497.15625 198.73808Q497.15625 198.03496 497.53125 197.48808Q497.90625 196.92558 498.57812 196.64433Q498.01562 196.36308 497.6875 195.86308Q497.35938 195.36308 497.35938 194.72246Q497.35938 193.64433 498.04688 193.01933Q498.73438 192.37871 499.875 192.37871Q501.0 192.37871 501.6875 193.01933Q502.39062 193.64433 502.39062 194.72246ZM501.5 198.70683Q501.5 197.98808 501.04688 197.55058Q500.59375 197.09746 499.85938 197.09746Q499.125 197.09746 498.67188 197.55058Q498.23438 197.98808 498.23438 198.72246Q498.23438 199.44121 498.67188 199.86308Q499.10938 200.26933 499.875 200.26933Q500.625 200.26933 501.0625 199.84746Q501.5 199.42558 501.5 198.70683ZM499.875 193.26933Q499.23438 193.26933 498.82812 193.67558Q498.4375 194.06621 498.4375 194.75371Q498.4375 195.39433 498.82812 195.80058Q499.21875 196.20683 499.85938 196.20683Q500.51562 196.20683 500.90625 195.80058Q501.29688 195.39433 501.29688 194.75371Q501.29688 194.09746 500.89062 193.69121Q500.48438 193.26933 499.875 193.26933ZM509.39062 194.72246Q509.39062 195.36308 509.04688 195.86308Q508.70312 196.36308 508.14062 196.64433Q508.79688 196.92558 509.1875 197.48808Q509.57812 198.03496 509.57812 198.73808Q509.57812 199.83183 508.82812 200.50371Q508.09375 201.15996 506.875 201.15996Q505.64062 201.15996 504.89062 200.50371Q504.15625 199.83183 504.15625 198.73808Q504.15625 198.03496 504.53125 197.48808Q504.90625 196.92558 505.57812 196.64433Q505.01562 196.36308 504.6875 195.86308Q504.35938 195.36308 504.35938 194.72246Q504.35938 193.64433 505.04688 193.01933Q505.73438 192.37871 506.875 192.37871Q508.0 192.37871 508.6875 193.01933Q509.39062 193.64433 509.39062 194.72246ZM508.5 198.70683Q508.5 197.98808 508.04688 197.55058Q507.59375 197.09746 506.85938 197.09746Q506.125 197.09746 505.67188 197.55058Q505.23438 197.98808 505.23438 198.72246Q505.23438 199.44121 505.67188 199.86308Q506.10938 200.26933 506.875 200.26933Q507.625 200.26933 508.0625 199.84746Q508.5 199.42558 508.5 198.70683ZM506.875 193.26933Q506.23438 193.26933 505.82812 193.67558Q505.4375 194.06621 505.4375 194.75371Q505.4375 195.39433 505.82812 195.80058Q506.21875 196.20683 506.85938 196.20683Q507.51562 196.20683 507.90625 195.80058Q508.29688 195.39433 508.29688 194.75371Q508.29688 194.09746 507.89062 193.69121Q507.48438 193.26933 506.875 193.26933ZM516.3906 194.72246Q516.3906 195.36308 516.0469 195.86308Q515.7031 196.36308 515.1406 196.64433Q515.7969 196.92558 516.1875 197.48808Q516.5781 198.03496 516.5781 198.73808Q516.5781 199.83183 515.8281 200.50371Q515.09375 201.15996 513.875 201.15996Q512.6406 201.15996 511.89062 200.50371Q511.15625 199.83183 511.15625 198.73808Q511.15625 198.03496 511.53125 197.48808Q511.90625 196.92558 512.5781 196.64433Q512.0156 196.36308 511.6875 195.86308Q511.35938 195.36308 511.35938 194.72246Q511.35938 193.64433 512.0469 193.01933Q512.7344 192.37871 513.875 192.37871Q515.0 192.37871 515.6875 193.01933Q516.3906 193.64433 516.3906 194.72246ZM515.5 198.70683Q515.5 197.98808 515.0469 197.55058Q514.59375 197.09746 513.8594 197.09746Q513.125 197.09746 512.6719 197.55058Q512.2344 197.98808 512.2344 198.72246Q512.2344 199.44121 512.6719 199.86308Q513.1094 200.26933 513.875 200.26933Q514.625 200.26933 515.0625 199.84746Q515.5 199.42558 515.5 198.70683ZM513.875 193.26933Q513.2344 193.26933 512.8281 193.67558Q512.4375 194.06621 512.4375 194.75371Q512.4375 195.39433 512.8281 195.80058Q513.21875 196.20683 513.8594 196.20683Q514.5156 196.20683 514.90625 195.80058Q515.2969 195.39433 515.2969 194.75371Q515.2969 194.09746 514.8906 193.69121Q514.4844 193.26933 513.875 193.26933Z" fill-rule="nonzero"/><path fill="#ffffff" d="M488.79688 201.03496L483.20312 201.03496L483.20312 200.25371L486.15625 196.97246Q486.8125 196.22246 487.0625 195.76933Q487.3125 195.30058 487.3125 194.80058Q487.3125 194.12871 486.90625 193.70683Q486.51562 193.26933 485.82812 193.26933Q485.03125 193.26933 484.57812 193.73808Q484.125 194.19121 484.125 195.01933L483.04688 195.01933Q483.04688 193.83183 483.79688 193.11308Q484.5625 192.37871 485.82812 192.37871Q487.03125 192.37871 487.71875 193.00371Q488.40625 193.62871 488.40625 194.67558Q488.40625 195.92558 486.79688 197.67558L484.51562 200.14433L488.79688 200.14433L488.79688 201.03496ZM493.76562 201.03496L492.6875 201.03496L492.6875 193.81621L490.5 194.61308L490.5 193.62871L493.60938 192.45683L493.76562 192.45683L493.76562 201.03496ZM502.39062 194.72246Q502.39062 195.36308 502.04688 195.86308Q501.70312 196.36308 501.14062 196.64433Q501.79688 196.92558 502.1875 197.48808Q502.57812 198.03496 502.57812 198.73808Q502.57812 199.83183 501.82812 200.50371Q501.09375 201.15996 499.875 201.15996Q498.64062 201.15996 497.89062 200.50371Q497.15625 199.83183 497.15625 198.73808Q497.15625 198.03496 497.53125 197.48808Q497.90625 196.92558 498.57812 196.64433Q498.01562 196.36308 497.6875 195.86308Q497.35938 195.36308 497.35938 194.72246Q497.35938 193.64433 498.04688 193.01933Q498.73438 192.37871 499.875 192.37871Q501.0 192.37871 501.6875 193.01933Q502.39062 193.64433 502.39062 194.72246ZM501.5 198.70683Q501.5 197.98808 501.04688 197.55058Q500.59375 197.09746 499.85938 197.09746Q499.125 197.09746 498.67188 197.55058Q498.23438 197.98808 498.23438 198.72246Q498.23438 199.44121 498.67188 199.86308Q499.10938 200.26933 499.875 200.26933Q500.625 200.26933 501.0625 199.84746Q501.5 199.42558 501.5 198.70683ZM499.875 193.26933Q499.23438 193.26933 498.82812 193.67558Q498.4375 194.06621 498.4375 194.75371Q498.4375 195.39433 498.82812 195.80058Q499.21875 196.20683 499.85938 196.20683Q500.51562 196.20683 500.90625 195.80058Q501.29688 195.39433 501.29688 194.75371Q501.29688 194.09746 500.89062 193.69121Q500.48438 193.26933 499.875 193.26933ZM509.39062 194.72246Q509.39062 195.36308 509.04688 195.86308Q508.70312 196.36308 508.14062 196.64433Q508.79688 196.92558 509.1875 197.48808Q509.57812 198.03496 509.57812 198.73808Q509.57812 199.83183 508.82812 200.50371Q508.09375 201.15996 506.875 201.15996Q505.64062 201.15996 504.89062 200.50371Q504.15625 199.83183 504.15625 198.73808Q504.15625 198.03496 504.53125 197.48808Q504.90625 196.92558 505.57812 196.64433Q505.01562 196.36308 504.6875 195.86308Q504.35938 195.36308 504.35938 194.72246Q504.35938 193.64433 505.04688 193.01933Q505.73438 192.37871 506.875 192.37871Q508.0 192.37871 508.6875 193.01933Q509.39062 193.64433 509.39062 194.72246ZM508.5 198.70683Q508.5 197.98808 508.04688 197.55058Q507.59375 197.09746 506.85938 197.09746Q506.125 197.09746 505.67188 197.55058Q505.23438 197.98808 505.23438 198.72246Q505.23438 199.44121 505.67188 199.86308Q506.10938 200.26933 506.875 200.26933Q507.625 200.26933 508.0625 199.84746Q508.5 199.42558 508.5 198.70683ZM506.875 193.26933Q506.23438 193.26933 505.82812 193.67558Q505.4375 194.06621 505.4375 194.75371Q505.4375 195.39433 505.82812 195.80058Q506.21875 196.20683 506.85938 196.20683Q507.51562 196.20683 507.90625 195.80058Q508.29688 195.39433 508.29688 194.75371Q508.29688 194.09746 507.89062 193.69121Q507.48438 193.26933 506.875 193.26933ZM516.3906 194.72246Q516.3906 195.36308 516.0469 195.86308Q515.7031 196.36308 515.1406 196.64433Q515.7969 196.92558 516.1875 197.48808Q516.5781 198.03496 516.5781 198.73808Q516.5781 199.83183 515.8281 200.50371Q515.09375 201.15996 513.875 201.15996Q512.6406 201.15996 511.89062 200.50371Q511.15625 199.83183 511.15625 198.73808Q511.15625 198.03496 511.53125 197.48808Q511.90625 196.92558 512.5781 196.64433Q512.0156 196.36308 511.6875 195.86308Q511.35938 195.36308 511.35938 194.72246Q511.35938 193.64433 512.0469 193.01933Q512.7344 192.37871 513.875 192.37871Q515.0 192.37871 515.6875 193.01933Q516.3906 193.64433 516.3906 194.72246ZM515.5 198.70683Q515.5 197.98808 515.0469 197.55058Q514.59375 197.09746 513.8594 197.09746Q513.125 197.09746 512.6719 197.55058Q512.2344 197.98808 512.2344 198.72246Q512.2344 199.44121 512.6719 199.86308Q513.1094 200.26933 513.875 200.26933Q514.625 200.26933 515.0625 199.84746Q515.5 199.42558 515.5 198.70683ZM513.875 193.26933Q513.2344 193.26933 512.8281 193.67558Q512.4375 194.06621 512.4375 194.75371Q512.4375 195.39433 512.8281 195.80058Q513.21875 196.20683 513.8594 196.20683Q514.5156 196.20683 514.90625 195.80058Q515.2969 195.39433 515.2969 194.75371Q515.2969 194.09746 514.8906 193.69121Q514.4844 193.26933 513.875 193.26933Z" fill-rule="nonzero"/><path fill="#000000" d="M52.6125 332.3094Q52.6125 334.21564 51.95625 335.15314Q51.315624 336.075 49.925 336.075Q48.565624 336.075 47.909374 335.16876Q47.253124 334.2625 47.221874 332.45L47.221874 331.0125Q47.221874 329.1219 47.8625 328.21564Q48.51875 327.29376 49.909374 327.29376Q51.284374 327.29376 51.940624 328.1844Q52.596874 329.0594 52.6125 330.90314L52.6125 332.3094ZM51.51875 330.825Q51.51875 329.45 51.128124 328.825Q50.753124 328.1844 49.909374 328.1844Q49.08125 328.1844 48.690624 328.825Q48.315624 329.45 48.315624 330.7469L48.315624 332.48126Q48.315624 333.85626 48.70625 334.52814Q49.1125 335.1844 49.925 335.1844Q50.721874 335.1844 51.1125 334.5594Q51.503124 333.9344 51.51875 332.60626L51.51875 330.825Z" fill-rule="nonzero"/><path fill="#000000" d="M22.815624 268.69168L21.7375 268.69168L21.7375 261.47293L19.55 262.2698L19.55 261.28543L22.659374 260.11356L22.815624 260.11356L22.815624 268.69168ZM31.6125 265.05106Q31.6125 266.9573 30.95625 267.8948Q30.315624 268.81668 28.925 268.81668Q27.565624 268.81668 26.909374 267.91043Q26.253124 267.00418 26.221874 265.19168L26.221874 263.75418Q26.221874 261.86356 26.8625 260.9573Q27.51875 260.03543 28.909374 260.03543Q30.284374 260.03543 30.940624 260.92606Q31.596874 261.80106 31.6125 263.6448L31.6125 265.05106ZM30.51875 263.56668Q30.51875 262.19168 30.128124 261.56668Q29.753124 260.92606 28.909374 260.92606Q28.08125 260.92606 27.690624 261.56668Q27.315624 262.19168 27.315624 263.48856L27.315624 265.22293Q27.315624 266.59793 27.70625 267.2698Q28.1125 267.92606 28.925 267.92606Q29.721874 267.92606 30.1125 267.30106Q30.503124 266.67606 30.51875 265.34793L30.51875 263.56668ZM38.6125 265.05106Q38.6125 266.9573 37.95625 267.8948Q37.315624 268.81668 35.925 268.81668Q34.565624 268.81668 33.909374 267.91043Q33.253124 267.00418 33.221874 265.19168L33.221874 263.75418Q33.221874 261.86356 33.8625 260.9573Q34.51875 260.03543 35.909374 260.03543Q37.284374 260.03543 37.940624 260.92606Q38.596874 261.80106 38.6125 263.6448L38.6125 265.05106ZM37.51875 263.56668Q37.51875 262.19168 37.128124 261.56668Q36.753124 260.92606 35.909374 260.92606Q35.08125 260.92606 34.690624 261.56668Q34.315624 262.19168 34.315624 263.48856L34.315624 265.22293Q34.315624 266.59793 34.70625 267.2698Q35.1125 267.92606 35.925 267.92606Q36.721874 267.92606 37.1125 267.30106Q37.503124 266.67606 37.51875 265.34793L37.51875 263.56668ZM45.6125 265.05106Q45.6125 266.9573 44.95625 267.8948Q44.315624 268.81668 42.925 268.81668Q41.565624 268.81668 40.909374 267.91043Q40.253124 267.00418 40.221874 265.19168L40.221874 263.75418Q40.221874 261.86356 40.8625 260.9573Q41.51875 260.03543 42.909374 260.03543Q44.284374 260.03543 44.940624 260.92606Q45.596874 261.80106 45.6125 263.6448L45.6125 265.05106ZM44.51875 263.56668Q44.51875 262.19168 44.128124 261.56668Q43.753124 260.92606 42.909374 260.92606Q42.08125 260.92606 41.690624 261.56668Q41.315624 262.19168 41.315624 263.48856L41.315624 265.22293Q41.315624 266.59793 41.70625 267.2698Q42.1125 267.92606 42.925 267.92606Q43.721874 267.92606 44.1125 267.30106Q44.503124 266.67606 44.51875 265.34793L44.51875 263.56668ZM52.6125 265.05106Q52.6125 266.9573 51.95625 267.8948Q51.315624 268.81668 49.925 268.81668Q48.565624 268.81668 47.909374 267.91043Q47.253124 267.00418 47.221874 265.19168L47.221874 263.75418Q47.221874 261.86356 47.8625 260.9573Q48.51875 260.03543 49.909374 260.03543Q51.284374 260.03543 51.940624 260.92606Q52.596874 261.80106 52.6125 263.6448L52.6125 265.05106ZM51.51875 263.56668Q51.51875 262.19168 51.128124 261.56668Q50.753124 260.92606 49.909374 260.92606Q49.08125 260.92606 48.690624 261.56668Q48.315624 262.19168 48.315624 263.48856L48.315624 265.22293Q48.315624 266.59793 48.70625 267.2698Q49.1125 267.92606 49.925 267.92606Q50.721874 267.92606 51.1125 267.30106Q51.503124 266.67606 51.51875 265.34793L51.51875 263.56668Z" fill-rule="nonzero"/><path fill="#000000" d="M24.846874 201.43333L19.253124 201.43333L19.253124 200.65208L22.20625 197.37083Q22.8625 196.62083 23.1125 196.16771Q23.3625 195.69896 23.3625 195.19896Q23.3625 194.52708 22.95625 194.10521Q22.565624 193.66771 21.878124 193.66771Q21.08125 193.66771 20.628124 194.13646Q20.175 194.58958 20.175 195.41771L19.096874 195.41771Q19.096874 194.23021 19.846874 193.51146Q20.6125 192.77708 21.878124 192.77708Q23.08125 192.77708 23.76875 193.40208Q24.45625 194.02708 24.45625 195.07396Q24.45625 196.32396 22.846874 198.07396L20.565624 200.54271L24.846874 200.54271L24.846874 201.43333ZM31.6125 197.79271Q31.6125 199.69896 30.95625 200.63646Q30.315624 201.55833 28.925 201.55833Q27.565624 201.55833 26.909374 200.65208Q26.253124 199.74583 26.221874 197.93333L26.221874 196.49583Q26.221874 194.60521 26.8625 193.69896Q27.51875 192.77708 28.909374 192.77708Q30.284374 192.77708 30.940624 193.66771Q31.596874 194.54271 31.6125 196.38646L31.6125 197.79271ZM30.51875 196.30833Q30.51875 194.93333 30.128124 194.30833Q29.753124 193.66771 28.909374 193.66771Q28.08125 193.66771 27.690624 194.30833Q27.315624 194.93333 27.315624 196.23021L27.315624 197.96458Q27.315624 199.33958 27.70625 200.01146Q28.1125 200.66771 28.925 200.66771Q29.721874 200.66771 30.1125 200.04271Q30.503124 199.41771 30.51875 198.08958L30.51875 196.30833ZM38.6125 197.79271Q38.6125 199.69896 37.95625 200.63646Q37.315624 201.55833 35.925 201.55833Q34.565624 201.55833 33.909374 200.65208Q33.253124 199.74583 33.221874 197.93333L33.221874 196.49583Q33.221874 194.60521 33.8625 193.69896Q34.51875 192.77708 35.909374 192.77708Q37.284374 192.77708 37.940624 193.66771Q38.596874 194.54271 38.6125 196.38646L38.6125 197.79271ZM37.51875 196.30833Q37.51875 194.93333 37.128124 194.30833Q36.753124 193.66771 35.909374 193.66771Q35.08125 193.66771 34.690624 194.30833Q34.315624 194.93333 34.315624 196.23021L34.315624 197.96458Q34.315624 199.33958 34.70625 200.01146Q35.1125 200.66771 35.925 200.66771Q36.721874 200.66771 37.1125 200.04271Q37.503124 199.41771 37.51875 198.08958L37.51875 196.30833ZM45.6125 197.79271Q45.6125 199.69896 44.95625 200.63646Q44.315624 201.55833 42.925 201.55833Q41.565624 201.55833 40.909374 200.65208Q40.253124 199.74583 40.221874 197.93333L40.221874 196.49583Q40.221874 194.60521 40.8625 193.69896Q41.51875 192.77708 42.909374 192.77708Q44.284374 192.77708 44.940624 193.66771Q45.596874 194.54271 45.6125 196.38646L45.6125 197.79271ZM44.51875 196.30833Q44.51875 194.93333 44.128124 194.30833Q43.753124 193.66771 42.909374 193.66771Q42.08125 193.66771 41.690624 194.30833Q41.315624 194.93333 41.315624 196.23021L41.315624 197.96458Q41.315624 199.33958 41.70625 200.01146Q42.1125 200.66771 42.925 200.66771Q43.721874 200.66771 44.1125 200.04271Q44.503124 199.41771 44.51875 198.08958L44.51875 196.30833ZM52.6125 197.79271Q52.6125 199.69896 51.95625 200.63646Q51.315624 201.55833 49.925 201.55833Q48.565624 201.55833 47.909374 200.65208Q47.253124 199.74583 47.221874 197.93333L47.221874 196.49583Q47.221874 194.60521 47.8625 193.69896Q48.51875 192.77708 49.909374 192.77708Q51.284374 192.77708 51.940624 193.66771Q52.596874 194.54271 52.6125 196.38646L52.6125 197.79271ZM51.51875 196.30833Q51.51875 194.93333 51.128124 194.30833Q50.753124 193.66771 49.909374 193.66771Q49.08125 193.66771 48.690624 194.30833Q48.315624 194.93333 48.315624 196.23021L48.315624 197.96458Q48.315624 199.33958 48.70625 200.01146Q49.1125 200.66771 49.925 200.66771Q50.721874 200.66771 51.1125 200.04271Q51.503124 199.41771 51.51875 198.08958L51.51875 196.30833Z" fill-rule="nonzero"/><path fill="#000000" d="M20.83125 129.37813L21.64375 129.37813Q22.425 129.3625 22.8625 128.97188Q23.3 128.58125 23.3 127.90938Q23.3 126.40938 21.8 126.40938Q21.096874 126.40938 20.675 126.81563Q20.26875 127.22188 20.26875 127.87813L19.175 127.87813Q19.175 126.8625 19.909374 126.19063Q20.659374 125.51875 21.8 125.51875Q23.003124 125.51875 23.690624 126.15938Q24.378124 126.8 24.378124 127.94063Q24.378124 128.50313 24.01875 129.01875Q23.659374 129.53438 23.034374 129.8Q23.7375 130.01875 24.1125 130.53438Q24.503124 131.05 24.503124 131.8Q24.503124 132.94063 23.753124 133.62813Q23.003124 134.3 21.8 134.3Q20.6125 134.3 19.846874 133.64375Q19.096874 132.9875 19.096874 131.925L20.190624 131.925Q20.190624 132.59688 20.628124 133.00313Q21.065624 133.40938 21.815624 133.40938Q22.596874 133.40938 23.003124 133.00313Q23.425 132.58125 23.425 131.81563Q23.425 131.08125 22.971874 130.69063Q22.51875 130.28438 21.64375 130.26875L20.83125 130.26875L20.83125 129.37813ZM31.6125 130.53438Q31.6125 132.44063 30.95625 133.37813Q30.315624 134.3 28.925 134.3Q27.565624 134.3 26.909374 133.39375Q26.253124 132.4875 26.221874 130.675L26.221874 129.2375Q26.221874 127.34688 26.8625 126.44063Q27.51875 125.51875 28.909374 125.51875Q30.284374 125.51875 30.940624 126.40938Q31.596874 127.28438 31.6125 129.12813L31.6125 130.53438ZM30.51875 129.05Q30.51875 127.675 30.128124 127.05Q29.753124 126.40938 28.909374 126.40938Q28.08125 126.40938 27.690624 127.05Q27.315624 127.675 27.315624 128.97188L27.315624 130.70625Q27.315624 132.08125 27.70625 132.75313Q28.1125 133.40938 28.925 133.40938Q29.721874 133.40938 30.1125 132.78438Q30.503124 132.15938 30.51875 130.83125L30.51875 129.05ZM38.6125 130.53438Q38.6125 132.44063 37.95625 133.37813Q37.315624 134.3 35.925 134.3Q34.565624 134.3 33.909374 133.39375Q33.253124 132.4875 33.221874 130.675L33.221874 129.2375Q33.221874 127.34688 33.8625 126.44063Q34.51875 125.51875 35.909374 125.51875Q37.284374 125.51875 37.940624 126.40938Q38.596874 127.28438 38.6125 129.12813L38.6125 130.53438ZM37.51875 129.05Q37.51875 127.675 37.128124 127.05Q36.753124 126.40938 35.909374 126.40938Q35.08125 126.40938 34.690624 127.05Q34.315624 127.675 34.315624 128.97188L34.315624 130.70625Q34.315624 132.08125 34.70625 132.75313Q35.1125 133.40938 35.925 133.40938Q36.721874 133.40938 37.1125 132.78438Q37.503124 132.15938 37.51875 130.83125L37.51875 129.05ZM45.6125 130.53438Q45.6125 132.44063 44.95625 133.37813Q44.315624 134.3 42.925 134.3Q41.565624 134.3 40.909374 133.39375Q40.253124 132.4875 40.221874 130.675L40.221874 129.2375Q40.221874 127.34688 40.8625 126.44063Q41.51875 125.51875 42.909374 125.51875Q44.284374 125.51875 44.940624 126.40938Q45.596874 127.28438 45.6125 129.12813L45.6125 130.53438ZM44.51875 129.05Q44.51875 127.675 44.128124 127.05Q43.753124 126.40938 42.909374 126.40938Q42.08125 126.40938 41.690624 127.05Q41.315624 127.675 41.315624 128.97188L41.315624 130.70625Q41.315624 132.08125 41.70625 132.75313Q42.1125 133.40938 42.925 133.40938Q43.721874 133.40938 44.1125 132.78438Q44.503124 132.15938 44.51875 130.83125L44.51875 129.05ZM52.6125 130.53438Q52.6125 132.44063 51.95625 133.37813Q51.315624 134.3 49.925 134.3Q48.565624 134.3 47.909374 133.39375Q47.253124 132.4875 47.221874 130.675L47.221874 129.2375Q47.221874 127.34688 47.8625 126.44063Q48.51875 125.51875 49.909374 125.51875Q51.284374 125.51875 51.940624 126.40938Q52.596874 127.28438 52.6125 129.12813L52.6125 130.53438ZM51.51875 129.05Q51.51875 127.675 51.128124 127.05Q50.753124 126.40938 49.909374 126.40938Q49.08125 126.40938 48.690624 127.05Q48.315624 127.675 48.315624 128.97188L48.315624 130.70625Q48.315624 132.08125 48.70625 132.75313Q49.1125 133.40938 49.925 133.40938Q50.721874 133.40938 51.1125 132.78438Q51.503124 132.15938 51.51875 130.83125L51.51875 129.05Z" fill-rule="nonzero"/><path fill="#000000" d="M23.83125 64.05729L25.01875 64.05729L25.01875 64.93229L23.83125 64.93229L23.83125 66.916664L22.753124 66.916664L22.753124 64.93229L18.8625 64.93229L18.8625 64.291664L22.675 58.385414L23.83125 58.385414L23.83125 64.05729ZM20.096874 64.05729L22.753124 64.05729L22.753124 59.86979L22.6125 60.104164L20.096874 64.05729ZM31.6125 63.27604Q31.6125 65.18229 30.95625 66.11979Q30.315624 67.041664 28.925 67.041664Q27.565624 67.041664 26.909374 66.135414Q26.253124 65.229164 26.221874 63.416664L26.221874 61.979164Q26.221874 60.08854 26.8625 59.18229Q27.51875 58.260414 28.909374 58.260414Q30.284374 58.260414 30.940624 59.15104Q31.596874 60.02604 31.6125 61.86979L31.6125 63.27604ZM30.51875 61.791664Q30.51875 60.416664 30.128124 59.791664Q29.753124 59.15104 28.909374 59.15104Q28.08125 59.15104 27.690624 59.791664Q27.315624 60.416664 27.315624 61.71354L27.315624 63.447914Q27.315624 64.822914 27.70625 65.49479Q28.1125 66.15104 28.925 66.15104Q29.721874 66.15104 30.1125 65.52604Q30.503124 64.90104 30.51875 63.572914L30.51875 61.791664ZM38.6125 63.27604Q38.6125 65.18229 37.95625 66.11979Q37.315624 67.041664 35.925 67.041664Q34.565624 67.041664 33.909374 66.135414Q33.253124 65.229164 33.221874 63.416664L33.221874 61.979164Q33.221874 60.08854 33.8625 59.18229Q34.51875 58.260414 35.909374 58.260414Q37.284374 58.260414 37.940624 59.15104Q38.596874 60.02604 38.6125 61.86979L38.6125 63.27604ZM37.51875 61.791664Q37.51875 60.416664 37.128124 59.791664Q36.753124 59.15104 35.909374 59.15104Q35.08125 59.15104 34.690624 59.791664Q34.315624 60.416664 34.315624 61.71354L34.315624 63.447914Q34.315624 64.822914 34.70625 65.49479Q35.1125 66.15104 35.925 66.15104Q36.721874 66.15104 37.1125 65.52604Q37.503124 64.90104 37.51875 63.572914L37.51875 61.791664ZM45.6125 63.27604Q45.6125 65.18229 44.95625 66.11979Q44.315624 67.041664 42.925 67.041664Q41.565624 67.041664 40.909374 66.135414Q40.253124 65.229164 40.221874 63.416664L40.221874 61.979164Q40.221874 60.08854 40.8625 59.18229Q41.51875 58.260414 42.909374 58.260414Q44.284374 58.260414 44.940624 59.15104Q45.596874 60.02604 45.6125 61.86979L45.6125 63.27604ZM44.51875 61.791664Q44.51875 60.416664 44.128124 59.791664Q43.753124 59.15104 42.909374 59.15104Q42.08125 59.15104 41.690624 59.791664Q41.315624 60.416664 41.315624 61.71354L41.315624 63.447914Q41.315624 64.822914 41.70625 65.49479Q42.1125 66.15104 42.925 66.15104Q43.721874 66.15104 44.1125 65.52604Q44.503124 64.90104 44.51875 63.572914L44.51875 61.791664ZM52.6125 63.27604Q52.6125 65.18229 51.95625 66.11979Q51.315624 67.041664 49.925 67.041664Q48.565624 67.041664 47.909374 66.135414Q47.253124 65.229164 47.221874 63.416664L47.221874 61.979164Q47.221874 60.08854 47.8625 59.18229Q48.51875 58.260414 49.909374 58.260414Q51.284374 58.260414 51.940624 59.15104Q52.596874 60.02604 52.6125 61.86979L52.6125 63.27604ZM51.51875 61.791664Q51.51875 60.416664 51.128124 59.791664Q50.753124 59.15104 49.909374 59.15104Q49.08125 59.15104 48.690624 59.791664Q48.315624 60.416664 48.315624 61.71354L48.315624 63.447914Q48.315624 64.822914 48.70625 65.49479Q49.1125 66.15104 49.925 66.15104Q50.721874 66.15104 51.1125 65.52604Q51.503124 64.90104 51.51875 63.572914L51.51875 61.791664Z" fill-rule="nonzero"/><path fill="#000000" d="M129.59698 340.91876L130.73761 340.91876L130.73761 346.96564Q130.73761 348.1844 129.98761 348.8875Q129.25323 349.575 128.03448 349.575Q126.76886 349.575 126.05011 348.91876Q125.346985 348.2625 125.346985 347.09064L126.471985 347.09064Q126.471985 347.825 126.86261 348.2469Q127.26886 348.65314 128.03448 348.65314Q128.73761 348.65314 129.15948 348.21564Q129.59698 347.7625 129.59698 346.98126L129.59698 340.91876ZM135.53448 345.65314Q134.09698 345.23126 133.42511 344.6219Q132.76886 344.0125 132.76886 343.1219Q132.76886 342.1219 133.56573 341.46564Q134.37823 340.79376 135.67511 340.79376Q136.55011 340.79376 137.23761 341.1375Q137.92511 341.48126 138.30011 342.075Q138.69073 342.66876 138.69073 343.3875L137.55011 343.3875Q137.55011 342.60626 137.05011 342.16876Q136.56573 341.73126 135.67511 341.73126Q134.84698 341.73126 134.37823 342.10626Q133.90948 342.46564 133.90948 343.10626Q133.90948 343.6375 134.34698 343.9969Q134.80011 344.35626 135.86261 344.65314Q136.92511 344.95 137.51886 345.3094Q138.12823 345.66876 138.40948 346.15314Q138.70636 346.6375 138.70636 347.27814Q138.70636 348.325 137.89386 348.95Q137.08136 349.575 135.73761 349.575Q134.84698 349.575 134.08136 349.23126Q133.33136 348.8875 132.90948 348.3094Q132.50323 347.71564 132.50323 346.98126L133.62823 346.98126Q133.62823 347.7469 134.20636 348.2Q134.78448 348.65314 135.73761 348.65314Q136.62823 348.65314 137.09698 348.29376Q137.56573 347.91876 137.56573 347.29376Q137.56573 346.66876 137.12823 346.325Q136.69073 345.98126 135.53448 345.65314ZM146.58136 345.46564Q146.58136 346.71564 146.15948 347.65314Q145.73761 348.575 144.95636 349.075Q144.19073 349.575 143.15948 349.575Q142.15948 349.575 141.37823 349.075Q140.59698 348.575 140.15948 347.66876Q139.73761 346.7469 139.72198 345.52814L139.72198 344.91876Q139.72198 343.6844 140.14386 342.7469Q140.58136 341.8094 141.36261 341.3094Q142.14386 340.79376 143.15948 340.79376Q144.17511 340.79376 144.95636 341.29376Q145.73761 341.79376 146.15948 342.73126Q146.58136 343.66876 146.58136 344.91876L146.58136 345.46564ZM145.47198 344.90314Q145.47198 343.3875 144.86261 342.575Q144.25323 341.7625 143.15948 341.7625Q142.08136 341.7625 141.47198 342.575Q140.86261 343.3875 140.84698 344.825L140.84698 345.46564Q140.84698 346.9344 141.45636 347.77814Q142.08136 348.60626 143.15948 348.60626Q144.25323 348.60626 144.84698 347.825Q145.45636 347.02814 145.47198 345.54376L145.47198 344.90314ZM154.58136 349.45L153.45636 349.45L149.15948 342.8719L149.15948 349.45L148.01886 349.45L148.01886 340.91876L149.15948 340.91876L153.45636 347.52814L153.45636 340.91876L154.58136 340.91876L154.58136 349.45Z" fill-rule="nonzero"/><path fill="#000000" d="M256.80835 348.325Q256.37085 348.95 255.58961 349.2625Q254.80836 349.575 253.77711 349.575Q252.74586 349.575 251.93336 349.09064Q251.12086 348.59064 250.68336 347.6844Q250.24586 346.77814 250.23024 345.59064L250.23024 344.85626Q250.23024 342.91876 251.12086 341.85626Q252.02711 340.79376 253.65211 340.79376Q254.99586 340.79376 255.80836 341.48126Q256.62085 342.16876 256.80835 343.41876L255.68336 343.41876Q255.35524 341.73126 253.66774 341.73126Q252.52711 341.73126 251.94899 342.52814Q251.37086 343.3094 251.35524 344.825L251.35524 345.5125Q251.35524 346.95 252.01149 347.8094Q252.66774 348.65314 253.79274 348.65314Q254.41774 348.65314 254.88649 348.5125Q255.37086 348.3719 255.68336 348.02814L255.68336 346.1219L253.71461 346.1219L253.71461 345.2L256.80835 345.2L256.80835 348.325ZM258.04272 346.21564Q258.04272 345.29376 258.4021 344.54376Q258.7771 343.79376 259.43335 343.40314Q260.0896 342.9969 260.91772 342.9969Q262.2146 342.9969 263.01147 343.8875Q263.82397 344.77814 263.82397 346.27814L263.82397 346.35626Q263.82397 347.27814 263.4646 348.0125Q263.10522 348.7469 262.44897 349.16876Q261.79272 349.575 260.93335 349.575Q259.6521 349.575 258.8396 348.6844Q258.04272 347.77814 258.04272 346.29376L258.04272 346.21564ZM259.13647 346.35626Q259.13647 347.40314 259.62085 348.04376Q260.12085 348.6844 260.93335 348.6844Q261.76147 348.6844 262.24585 348.04376Q262.73022 347.3875 262.73022 346.21564Q262.73022 345.1844 262.23022 344.54376Q261.74585 343.8875 260.91772 343.8875Q260.12085 343.8875 259.62085 344.52814Q259.13647 345.15314 259.13647 346.35626ZM270.69897 346.35626Q270.69897 347.8094 270.0271 348.7Q269.37085 349.575 268.24585 349.575Q267.04272 349.575 266.38647 348.71564L266.32397 349.45L265.3396 349.45L265.3396 340.45L266.41772 340.45L266.41772 343.8094Q267.07397 342.9969 268.23022 342.9969Q269.38647 342.9969 270.04272 343.8719Q270.69897 344.73126 270.69897 346.2625L270.69897 346.35626ZM269.62085 346.23126Q269.62085 345.1219 269.18335 344.52814Q268.76147 343.91876 267.9646 343.91876Q266.88647 343.91876 266.41772 344.90314L266.41772 347.65314Q266.91772 348.65314 267.9646 348.65314Q268.74585 348.65314 269.18335 348.04376Q269.62085 347.4344 269.62085 346.23126Z" fill-rule="nonzero"/><path fill="#000000" d="M343.926 340.91876L346.72287 347.8719L349.50412 340.91876L350.97287 340.91876L350.97287 349.45L349.84787 349.45L349.84787 346.1219L349.95724 342.54376L347.14474 349.45L346.28537 349.45L343.4885 342.5594L343.59787 346.1219L343.59787 349.45L342.47287 349.45L342.47287 340.91876L343.926 340.91876ZM354.94162 349.575Q353.64474 349.575 352.83224 348.73126Q352.03537 347.8719 352.03537 346.45L352.03537 346.2625Q352.03537 345.3094 352.39474 344.575Q352.75412 343.825 353.39474 343.41876Q354.051 342.9969 354.801 342.9969Q356.03537 342.9969 356.72287 343.8094Q357.41037 344.6219 357.41037 346.1375L357.41037 346.59064L353.1135 346.59064Q353.14474 347.52814 353.66037 348.10626Q354.19162 348.6844 355.00412 348.6844Q355.56662 348.6844 355.95724 348.45Q356.3635 348.21564 356.676 347.825L357.33224 348.34064Q356.53537 349.575 354.94162 349.575ZM354.801 343.8875Q354.14474 343.8875 353.69162 344.3719Q353.25412 344.84064 353.16037 345.7L356.33224 345.7L356.33224 345.6219Q356.28537 344.79376 355.87912 344.34064Q355.4885 343.8875 354.801 343.8875ZM362.00412 347.7625Q362.00412 347.325 361.66037 347.09064Q361.33224 346.84064 360.50412 346.66876Q359.69162 346.4969 359.20724 346.2469Q358.72287 345.9969 358.4885 345.66876Q358.26974 345.325 358.26974 344.85626Q358.26974 344.075 358.926 343.54376Q359.58224 342.9969 360.6135 342.9969Q361.69162 342.9969 362.34787 343.5594Q363.01974 344.10626 363.01974 344.96564L361.94162 344.96564Q361.94162 344.52814 361.551 344.21564Q361.176 343.8875 360.6135 343.8875Q360.01974 343.8875 359.676 344.15314Q359.34787 344.40314 359.34787 344.8094Q359.34787 345.2 359.66037 345.40314Q359.97287 345.60626 360.78537 345.79376Q361.59787 345.96564 362.09787 346.21564Q362.59787 346.46564 362.83224 346.825Q363.08224 347.1844 363.08224 347.6844Q363.08224 348.54376 362.39474 349.0594Q361.72287 349.575 360.64474 349.575Q359.87912 349.575 359.28537 349.3094Q358.70724 349.02814 358.37912 348.54376Q358.051 348.0594 358.051 347.4969L359.12912 347.4969Q359.16037 348.04376 359.56662 348.3719Q359.97287 348.6844 360.64474 348.6844Q361.25412 348.6844 361.62912 348.4344Q362.00412 348.1844 362.00412 347.7625ZM368.00412 347.7625Q368.00412 347.325 367.66037 347.09064Q367.33224 346.84064 366.50412 346.66876Q365.69162 346.4969 365.20724 346.2469Q364.72287 345.9969 364.4885 345.66876Q364.26974 345.325 364.26974 344.85626Q364.26974 344.075 364.926 343.54376Q365.58224 342.9969 366.6135 342.9969Q367.69162 342.9969 368.34787 343.5594Q369.01974 344.10626 369.01974 344.96564L367.94162 344.96564Q367.94162 344.52814 367.551 344.21564Q367.176 343.8875 366.6135 343.8875Q366.01974 343.8875 365.676 344.15314Q365.34787 344.40314 365.34787 344.8094Q365.34787 345.2 365.66037 345.40314Q365.97287 345.60626 366.78537 345.79376Q367.59787 345.96564 368.09787 346.21564Q368.59787 346.46564 368.83224 346.825Q369.08224 347.1844 369.08224 347.6844Q369.08224 348.54376 368.39474 349.0594Q367.72287 349.575 366.64474 349.575Q365.87912 349.575 365.28537 349.3094Q364.70724 349.02814 364.37912 348.54376Q364.051 348.0594 364.051 347.4969L365.12912 347.4969Q365.16037 348.04376 365.56662 348.3719Q365.97287 348.6844 366.64474 348.6844Q367.25412 348.6844 367.62912 348.4344Q368.00412 348.1844 368.00412 347.7625ZM374.22287 349.45Q374.12912 349.2625 374.06662 348.77814Q373.31662 349.575 372.26974 349.575Q371.33224 349.575 370.72287 349.04376Q370.12912 348.5125 370.12912 347.6844Q370.12912 346.7 370.87912 346.15314Q371.62912 345.60626 373.00412 345.60626L374.051 345.60626L374.051 345.10626Q374.051 344.54376 373.70724 344.21564Q373.37912 343.8719 372.70724 343.8719Q372.12912 343.8719 371.7385 344.16876Q371.34787 344.45 371.34787 344.8719L370.25412 344.8719Q370.25412 344.3875 370.58224 343.95Q370.926 343.5125 371.50412 343.2625Q372.08224 342.9969 372.76974 342.9969Q373.87912 342.9969 374.4885 343.54376Q375.1135 344.09064 375.14474 345.04376L375.14474 347.96564Q375.14474 348.84064 375.3635 349.35626L375.3635 349.45L374.22287 349.45ZM372.426 348.6219Q372.94162 348.6219 373.39474 348.35626Q373.84787 348.09064 374.051 347.66876L374.051 346.3719L373.20724 346.3719Q371.20724 346.3719 371.20724 347.54376Q371.20724 348.04376 371.551 348.34064Q371.89474 348.6219 372.426 348.6219ZM377.051 346.23126Q377.051 344.7469 377.7385 343.8719Q378.426 342.9969 379.551 342.9969Q380.70724 342.9969 381.3635 343.8094L381.41037 343.10626L382.41037 343.10626L382.41037 349.29376Q382.41037 350.52814 381.676 351.23126Q380.94162 351.95 379.72287 351.95Q379.03537 351.95 378.37912 351.65314Q377.72287 351.35626 377.37912 350.85626L377.94162 350.2Q378.62912 351.0594 379.64474 351.0594Q380.426 351.0594 380.8635 350.60626Q381.31662 350.16876 381.31662 349.35626L381.31662 348.8094Q380.66037 349.575 379.53537 349.575Q378.426 349.575 377.7385 348.6844Q377.051 347.77814 377.051 346.23126ZM378.14474 346.35626Q378.14474 347.41876 378.58224 348.04376Q379.01974 348.65314 379.81662 348.65314Q380.83224 348.65314 381.31662 347.71564L381.31662 344.825Q380.81662 343.91876 379.81662 343.91876Q379.03537 343.91876 378.58224 344.52814Q378.14474 345.1375 378.14474 346.35626ZM386.94162 349.575Q385.64474 349.575 384.83224 348.73126Q384.03537 347.8719 384.03537 346.45L384.03537 346.2625Q384.03537 345.3094 384.39474 344.575Q384.75412 343.825 385.39474 343.41876Q386.051 342.9969 386.801 342.9969Q388.03537 342.9969 388.72287 343.8094Q389.41037 344.6219 389.41037 346.1375L389.41037 346.59064L385.1135 346.59064Q385.14474 347.52814 385.66037 348.10626Q386.19162 348.6844 387.00412 348.6844Q387.56662 348.6844 387.95724 348.45Q388.3635 348.21564 388.676 347.825L389.33224 348.34064Q388.53537 349.575 386.94162 349.575ZM386.801 343.8875Q386.14474 343.8875 385.69162 344.3719Q385.25412 344.84064 385.16037 345.7L388.33224 345.7L388.33224 345.6219Q388.28537 344.79376 387.87912 344.34064Q387.4885 343.8875 386.801 343.8875ZM394.59787 346.10626L394.59787 349.45L393.47287 349.45L393.47287 340.91876L396.62912 340.91876Q398.01974 340.91876 398.81662 341.6375Q399.6135 342.34064 399.6135 343.52814Q399.6135 344.7625 398.83224 345.4344Q398.06662 346.10626 396.6135 346.10626L394.59787 346.10626ZM394.59787 345.1844L396.62912 345.1844Q397.53537 345.1844 398.00412 344.7625Q398.4885 344.34064 398.4885 343.54376Q398.4885 342.77814 398.00412 342.325Q397.53537 341.85626 396.69162 341.84064L394.59787 341.84064L394.59787 345.1844ZM405.22287 349.45Q405.12912 349.2625 405.06662 348.77814Q404.31662 349.575 403.26974 349.575Q402.33224 349.575 401.72287 349.04376Q401.12912 348.5125 401.12912 347.6844Q401.12912 346.7 401.87912 346.15314Q402.62912 345.60626 404.00412 345.60626L405.051 345.60626L405.051 345.10626Q405.051 344.54376 404.70724 344.21564Q404.37912 343.8719 403.70724 343.8719Q403.12912 343.8719 402.7385 344.16876Q402.34787 344.45 402.34787 344.8719L401.25412 344.8719Q401.25412 344.3875 401.58224 343.95Q401.926 343.5125 402.50412 343.2625Q403.08224 342.9969 403.76974 342.9969Q404.87912 342.9969 405.4885 343.54376Q406.1135 344.09064 406.14474 345.04376L406.14474 347.96564Q406.14474 348.84064 406.3635 349.35626L406.3635 349.45L405.22287 349.45ZM403.426 348.6219Q403.94162 348.6219 404.39474 348.35626Q404.84787 348.09064 405.051 347.66876L405.051 346.3719L404.20724 346.3719Q402.20724 346.3719 402.20724 347.54376Q402.20724 348.04376 402.551 348.34064Q402.89474 348.6219 403.426 348.6219ZM410.84787 348.6844Q411.426 348.6844 411.8635 348.34064Q412.301 347.98126 412.34787 347.45L413.37912 347.45Q413.34787 347.9969 412.9885 348.4969Q412.64474 348.98126 412.06662 349.27814Q411.50412 349.575 410.84787 349.575Q409.551 349.575 408.78537 348.71564Q408.03537 347.84064 408.03537 346.34064L408.03537 346.15314Q408.03537 345.23126 408.3635 344.5125Q408.70724 343.79376 409.33224 343.40314Q409.97287 342.9969 410.84787 342.9969Q411.91037 342.9969 412.6135 343.6375Q413.33224 344.2625 413.37912 345.29376L412.34787 345.29376Q412.301 344.66876 411.87912 344.27814Q411.45724 343.8875 410.84787 343.8875Q410.01974 343.8875 409.56662 344.48126Q409.1135 345.075 409.1135 346.2L409.1135 346.40314Q409.1135 347.4969 409.56662 348.09064Q410.01974 348.6844 410.84787 348.6844ZM416.08224 346.5125L415.39474 347.21564L415.39474 349.45L414.31662 349.45L414.31662 340.45L415.39474 340.45L415.39474 345.8875L415.97287 345.2L417.95724 343.10626L419.26974 343.10626L416.801 345.7625L419.56662 349.45L418.28537 349.45L416.08224 346.5125Z" fill-rule="nonzero"/><path fill="#000000" d="M483.2624 348.325Q482.8249 348.95 482.04364 349.2625Q481.2624 349.575 480.23114 349.575Q479.1999 349.575 478.3874 349.09064Q477.5749 348.59064 477.1374 347.6844Q476.6999 346.77814 476.68427 345.59064L476.68427 344.85626Q476.68427 342.91876 477.5749 341.85626Q478.48114 340.79376 480.10614 340.79376Q481.4499 340.79376 482.2624 341.48126Q483.0749 342.16876 483.2624 343.41876L482.1374 343.41876Q481.80927 341.73126 480.12177 341.73126Q478.98114 341.73126 478.403 342.52814Q477.8249 343.3094 477.80927 344.825L477.80927 345.5125Q477.80927 346.95 478.4655 347.8094Q479.12177 348.65314 480.24677 348.65314Q480.87177 348.65314 481.3405 348.5125Q481.8249 348.3719 482.1374 348.02814L482.1374 346.1219L480.16864 346.1219L480.16864 345.2L483.2624 345.2L483.2624 348.325ZM484.49677 346.21564Q484.49677 345.29376 484.85614 344.54376Q485.23114 343.79376 485.8874 343.40314Q486.54364 342.9969 487.37177 342.9969Q488.66864 342.9969 489.4655 343.8875Q490.278 344.77814 490.278 346.27814L490.278 346.35626Q490.278 347.27814 489.91864 348.0125Q489.55927 348.7469 488.903 349.16876Q488.24677 349.575 487.3874 349.575Q486.10614 349.575 485.29364 348.6844Q484.49677 347.77814 484.49677 346.29376L484.49677 346.21564ZM485.5905 346.35626Q485.5905 347.40314 486.0749 348.04376Q486.5749 348.6844 487.3874 348.6844Q488.2155 348.6844 488.6999 348.04376Q489.18427 347.3875 489.18427 346.21564Q489.18427 345.1844 488.68427 344.54376Q488.1999 343.8875 487.37177 343.8875Q486.5749 343.8875 486.0749 344.52814Q485.5905 345.15314 485.5905 346.35626ZM498.528 340.91876L499.66864 340.91876L499.66864 346.96564Q499.66864 348.1844 498.91864 348.8875Q498.18427 349.575 496.9655 349.575Q495.6999 349.575 494.98114 348.91876Q494.278 348.2625 494.278 347.09064L495.403 347.09064Q495.403 347.825 495.79364 348.2469Q496.1999 348.65314 496.9655 348.65314Q497.66864 348.65314 498.0905 348.21564Q498.528 347.7625 498.528 346.98126L498.528 340.91876ZM504.4655 345.65314Q503.028 345.23126 502.35614 344.6219Q501.6999 344.0125 501.6999 343.1219Q501.6999 342.1219 502.49677 341.46564Q503.30927 340.79376 504.60614 340.79376Q505.48114 340.79376 506.16864 341.1375Q506.85614 341.48126 507.23114 342.075Q507.62177 342.66876 507.62177 343.3875L506.48114 343.3875Q506.48114 342.60626 505.98114 342.16876Q505.49677 341.73126 504.60614 341.73126Q503.778 341.73126 503.30927 342.10626Q502.8405 342.46564 502.8405 343.10626Q502.8405 343.6375 503.278 343.9969Q503.73114 344.35626 504.79364 344.65314Q505.85614 344.95 506.4499 345.3094Q507.05927 345.66876 507.3405 346.15314Q507.6374 346.6375 507.6374 347.27814Q507.6374 348.325 506.8249 348.95Q506.0124 349.575 504.66864 349.575Q503.778 349.575 503.0124 349.23126Q502.2624 348.8875 501.8405 348.3094Q501.43427 347.71564 501.43427 346.98126L502.55927 346.98126Q502.55927 347.7469 503.1374 348.2Q503.7155 348.65314 504.66864 348.65314Q505.55927 348.65314 506.028 348.29376Q506.49677 347.91876 506.49677 347.29376Q506.49677 346.66876 506.05927 346.325Q505.62177 345.98126 504.4655 345.65314ZM515.5124 345.46564Q515.5124 346.71564 515.0905 347.65314Q514.66864 348.575 513.8874 349.075Q513.12177 349.575 512.0905 349.575Q511.0905 349.575 510.30927 349.075Q509.528 348.575 509.0905 347.66876Q508.66864 346.7469 508.653 345.52814L508.653 344.91876Q508.653 343.6844 509.0749 342.7469Q509.5124 341.8094 510.29364 341.3094Q511.0749 340.79376 512.0905 340.79376Q513.10614 340.79376 513.8874 341.29376Q514.66864 341.79376 515.0905 342.73126Q515.5124 343.66876 515.5124 344.91876L515.5124 345.46564ZM514.403 344.90314Q514.403 343.3875 513.79364 342.575Q513.18427 341.7625 512.0905 341.7625Q511.0124 341.7625 510.403 342.575Q509.79364 343.3875 509.778 344.825L509.778 345.46564Q509.778 346.9344 510.3874 347.77814Q511.0124 348.60626 512.0905 348.60626Q513.18427 348.60626 513.778 347.825Q514.3874 347.02814 514.403 345.54376L514.403 344.90314ZM523.5124 349.45L522.3874 349.45L518.0905 342.8719L518.0905 349.45L516.9499 349.45L516.9499 340.91876L518.0905 340.91876L522.3874 347.52814L522.3874 340.91876L523.5124 340.91876L523.5124 349.45Z" fill-rule="nonzero"/><path fill="#000000" d="M19.20625 38.55L19.20625 24.33125L23.221874 24.33125Q25.065624 24.33125 26.4875 25.159374Q27.925 25.971874 28.690624 27.4875Q29.471874 29.003124 29.4875 30.95625L29.4875 31.8625Q29.4875 33.878124 28.70625 35.39375Q27.925 36.909374 26.4875 37.721874Q25.05 38.534374 23.14375 38.55L19.20625 38.55ZM21.08125 25.878124L21.08125 37.01875L23.05 37.01875Q25.221874 37.01875 26.425 35.675Q27.628124 34.315624 27.628124 31.83125L27.628124 31.003124Q27.628124 28.58125 26.4875 27.2375Q25.346874 25.89375 23.26875 25.878124L21.08125 25.878124ZM36.3 38.753124Q34.159374 38.753124 32.8 37.346874Q31.45625 35.925 31.45625 33.565624L31.45625 33.221874Q31.45625 31.659374 32.05 30.425Q32.659374 29.190624 33.7375 28.4875Q34.815624 27.784374 36.08125 27.784374Q38.14375 27.784374 39.284374 29.14375Q40.425 30.503124 40.425 33.034374L40.425 33.784374L33.26875 33.784374Q33.3 35.346874 34.175 36.315624Q35.05 37.26875 36.39375 37.26875Q37.3625 37.26875 38.01875 36.878124Q38.690624 36.4875 39.190624 35.846874L40.284374 36.70625Q38.95625 38.753124 36.3 38.753124ZM36.08125 29.26875Q34.9875 29.26875 34.2375 30.065624Q33.503124 30.8625 33.33125 32.3L38.6125 32.3L38.6125 32.159374Q38.534374 30.784374 37.8625 30.034374Q37.20625 29.26875 36.08125 29.26875ZM47.159374 37.26875Q48.128124 37.26875 48.846874 36.690624Q49.565624 36.096874 49.64375 35.221874L51.3625 35.221874Q51.3 36.128124 50.721874 36.95625Q50.159374 37.76875 49.190624 38.26875Q48.2375 38.753124 47.159374 38.753124Q45.003124 38.753124 43.721874 37.315624Q42.45625 35.8625 42.45625 33.3625L42.45625 33.065624Q42.45625 31.51875 43.01875 30.315624Q43.58125 29.1125 44.64375 28.45625Q45.70625 27.784374 47.14375 27.784374Q48.925 27.784374 50.096874 28.846874Q51.284374 29.909374 51.3625 31.6125L49.64375 31.6125Q49.565624 30.596874 48.8625 29.940624Q48.175 29.26875 47.14375 29.26875Q45.76875 29.26875 45.003124 30.26875Q44.253124 31.253124 44.253124 33.128124L44.253124 33.471874Q44.253124 35.3 45.003124 36.284374Q45.753124 37.26875 47.159374 37.26875ZM52.440624 33.175Q52.440624 31.6125 53.05 30.378124Q53.659374 29.128124 54.7375 28.45625Q55.83125 27.784374 57.2375 27.784374Q59.39375 27.784374 60.721874 29.284374Q62.065624 30.76875 62.065624 33.253124L62.065624 33.378124Q62.065624 34.925 61.471874 36.159374Q60.878124 37.378124 59.76875 38.065624Q58.675 38.753124 57.253124 38.753124Q55.1125 38.753124 53.76875 37.253124Q52.440624 35.753124 52.440624 33.3L52.440624 33.175ZM54.253124 33.378124Q54.253124 35.14375 55.065624 36.20625Q55.89375 37.26875 57.253124 37.26875Q58.628124 37.26875 59.440624 36.190624Q60.253124 35.1125 60.253124 33.175Q60.253124 31.425 59.425 30.346874Q58.596874 29.26875 57.2375 29.26875Q55.89375 29.26875 55.065624 30.33125Q54.253124 31.39375 54.253124 33.378124ZM63.471874 33.175Q63.471874 30.753124 64.62813 29.26875Q65.78438 27.784374 67.64375 27.784374Q69.50313 27.784374 70.58125 29.05L70.58125 23.55L72.39375 23.55L72.39375 38.55L70.7375 38.55L70.64375 37.409374Q69.56563 38.753124 67.62813 38.753124Q65.8 38.753124 64.62813 37.253124Q63.471874 35.7375 63.471874 33.315624L63.471874 33.175ZM65.28438 33.378124Q65.28438 35.175 66.01875 36.190624Q66.76875 37.20625 68.08125 37.20625Q69.8 37.20625 70.58125 35.675L70.58125 30.815624Q69.78438 29.315624 68.09688 29.315624Q66.76875 29.315624 66.01875 30.346874Q65.28438 31.378124 65.28438 33.378124ZM79.3 38.753124Q77.15938 38.753124 75.8 37.346874Q74.45625 35.925 74.45625 33.565624L74.45625 33.221874Q74.45625 31.659374 75.05 30.425Q75.65938 29.190624 76.7375 28.4875Q77.81563 27.784374 79.08125 27.784374Q81.14375 27.784374 82.28438 29.14375Q83.425 30.503124 83.425 33.034374L83.425 33.784374L76.26875 33.784374Q76.3 35.346874 77.175 36.315624Q78.05 37.26875 79.39375 37.26875Q80.3625 37.26875 81.01875 36.878124Q81.69063 36.4875 82.19063 35.846874L83.28438 36.70625Q81.95625 38.753124 79.3 38.753124ZM79.08125 29.26875Q77.9875 29.26875 77.2375 30.065624Q76.50313 30.8625 76.33125 32.3L81.6125 32.3L81.6125 32.159374Q81.53438 30.784374 80.8625 30.034374Q80.20625 29.26875 79.08125 29.26875Z" fill-rule="nonzero"/></svg>