<svg version="1.1" viewBox="0.0 0.0 600.0 371.0" fill="none" stroke="none" stroke-linecap="square" stroke-miterlimit="10" width="600" height="371" xmlns:xlink="http://www.w3.org/1999/xlink" xmlns="http://www.w3.org/2000/svg"><path fill="#ffffff" d="M0 0L600.0 0L600.0 371.0L0 371.0L0 0Z" fill-rule="nonzero"/><path stroke="#333333" stroke-width="1.0" stroke-linecap="butt" d="M59.5 331.5L581.5 331.5" fill-rule="nonzero"/><path stroke="#cccccc" stroke-width="1.0" stroke-linecap="butt" d="M59.5 277.5L581.5 277.5" fill-rule="nonzero"/><path stroke="#cccccc" stroke-width="1.0" stroke-linecap="butt" d="M59.5 223.5L581.5 223.5" fill-rule="nonzero"/><path stroke="#cccccc" stroke-width="1.0" stroke-linecap="butt" d="M59.5 170.5L581.5 170.5" fill-rule="nonzero"/><path stroke="#cccccc" stroke-width="1.0" stroke-linecap="butt" d="M59.5 116.5L581.5 116.5" fill-rule="nonzero"/><path stroke="#cccccc" stroke-width="1.0" stroke-linecap="butt" d="M59.5 62.5L581.5 62.5" fill-rule="nonzero"/><clipPath id="id_0"><path d="M59.55 62.416668L581.45 62.416668L581.45 331.45L59.55 331.45L59.55 62.416668Z" clip-rule="nonzero"/></clipPath><path stroke="#000000" stroke-width="2.0" stroke-linecap="butt" stroke-opacity="0.0" clip-path="url(#id_0)" d="M180.0 331.0L102.0 331.0L102.0 99.0C102.0 97.89543 102.89543 97.0 104.0 97.0L178.0 97.0C179.10457 97.0 180.0 97.89543 180.0 99.0Z" fill-rule="nonzero"/><path fill="#4285f4" clip-path="url(#id_0)" d="M180.0 331.0L102.0 331.0L102.0 99.0C102.0 97.89543 102.89543 97.0 104.0 97.0L178.0 97.0C179.10457 97.0 180.0 97.89543 180.0 99.0Z" fill-rule="nonzero"/><path stroke="#000000" stroke-width="2.0" stroke-linecap="butt" stroke-opacity="0.0" clip-path="url(#id_0)" d="M300.0 331.0L222.0 331.0L222.0 251.0C222.0 249.89543 222.89543 249.0 224.0 249.0L298.0 249.0C299.10458 249.0 300.0 249.89543 300.0 251.0Z" fill-rule="nonzero"/><path fill="#4285f4" clip-path="url(#id_0)" d="M300.0 331.0L222.0 331.0L222.0 251.0C222.0 249.89543 222.89543 249.0 224.0 249.0L298.0 249.0C299.10458 249.0 300.0 249.89543 300.0 251.0Z" fill-rule="nonzero"/><path stroke="#000000" stroke-width="2.0" stroke-linecap="butt" stroke-opacity="0.0" clip-path="url(#id_0)" d="M419.0 331.0L341.0 331.0L341.0 221.0C341.0 219.89543 341.89542 219.0 343.0 219.0L417.0 219.0C418.10458 219.0 419.0 219.89543 419.0 221.0Z" fill-rule="nonzero"/><path fill="#4285f4" clip-path="url(#id_0)" d="M419.0 331.0L341.0 331.0L341.0 221.0C341.0 219.89543 341.89542 219.0 343.0 219.0L417.0 219.0C418.10458 219.0 419.0 219.89543 419.0 221.0Z" fill-rule="nonzero"/><path stroke="#000000" stroke-width="2.0" stroke-linecap="butt" stroke-opacity="0.0" clip-path="url(#id_0)" d="M539.0 331.0L461.0 331.0L461.0 196.0C461.0 194.89543 461.89542 194.0 463.0 194.0L537.0 194.0C538.10455 194.0 539.0 194.89543 539.0 196.0Z" fill-rule="nonzero"/><path fill="#4285f4" clip-path="url(#id_0)" d="M539.0 331.0L461.0 331.0L461.0 196.0C461.0 194.89543 461.89542 194.0 463.0 194.0L537.0 194.0C538.10455 194.0 539.0 194.89543 539.0 196.0Z" fill-rule="nonzero"/><path stroke="#4285f4" stroke-width="3.0" stroke-linejoin="round" stroke-linecap="round" d="M129.79688 113.51304L124.203125 113.51304L124.203125 112.73179L127.15625 109.45054Q127.8125 108.70054 128.0625 108.24741Q128.3125 107.77866 128.3125 107.27866Q128.3125 106.60679 127.90625 106.18491Q127.515625 105.74741 126.828125 105.74741Q126.03125 105.74741 125.578125 106.21616Q125.125 106.66929 125.125 107.49741L124.046875 107.49741Q124.046875 106.30991 124.796875 105.59116Q125.5625 104.85679 126.828125 104.85679Q128.03125 104.85679 128.71875 105.48179Q129.40625 106.10679 129.40625 107.15366Q129.40625 108.40366 127.796875 110.15366L125.515625 112.62241L129.79688 112.62241L129.79688 113.51304ZM134.76562 113.51304L133.6875 113.51304L133.6875 106.29429L131.5 107.09116L131.5 106.10679L134.60938 104.93491L134.76562 104.93491L134.76562 113.51304ZM143.39062 107.20054Q143.39062 107.84116 143.04688 108.34116Q142.70312 108.84116 142.14062 109.12241Q142.79688 109.40366 143.1875 109.96616Q143.57812 110.51304 143.57812 111.21616Q143.57812 112.30991 142.82812 112.98179Q142.09375 113.63804 140.875 113.63804Q139.64062 113.63804 138.89062 112.98179Q138.15625 112.30991 138.15625 111.21616Q138.15625 110.51304 138.53125 109.96616Q138.90625 109.40366 139.57812 109.12241Q139.01562 108.84116 138.6875 108.34116Q138.35938 107.84116 138.35938 107.20054Q138.35938 106.12241 139.04688 105.49741Q139.73438 104.85679 140.875 104.85679Q142.0 104.85679 142.6875 105.49741Q143.39062 106.12241 143.39062 107.20054ZM142.5 111.18491Q142.5 110.46616 142.04688 110.02866Q141.59375 109.57554 140.85938 109.57554Q140.125 109.57554 139.67188 110.02866Q139.23438 110.46616 139.23438 111.20054Q139.23438 111.91929 139.67188 112.34116Q140.10938 112.74741 140.875 112.74741Q141.625 112.74741 142.0625 112.32554Q142.5 111.90366 142.5 111.18491ZM140.875 105.74741Q140.23438 105.74741 139.82812 106.15366Q139.4375 106.54429 139.4375 107.23179Q139.4375 107.87241 139.82812 108.27866Q140.21875 108.68491 140.85938 108.68491Q141.51562 108.68491 141.90625 108.27866Q142.29688 107.87241 142.29688 107.23179Q142.29688 106.57554 141.89062 106.16929Q141.48438 105.74741 140.875 105.74741ZM148.76562 113.51304L147.6875 113.51304L147.6875 106.29429L145.5 107.09116L145.5 106.10679L148.60938 104.93491L148.76562 104.93491L148.76562 113.51304ZM153.78125 108.71616L154.59375 108.71616Q155.375 108.70054 155.8125 108.30991Q156.25 107.91929 156.25 107.24741Q156.25 105.74741 154.75 105.74741Q154.04688 105.74741 153.625 106.15366Q153.21875 106.55991 153.21875 107.21616L152.125 107.21616Q152.125 106.20054 152.85938 105.52866Q153.60938 104.85679 154.75 104.85679Q155.95312 104.85679 156.64062 105.49741Q157.32812 106.13804 157.32812 107.27866Q157.32812 107.84116 156.96875 108.35679Q156.60938 108.87241 155.98438 109.13804Q156.6875 109.35679 157.0625 109.87241Q157.45312 110.38804 157.45312 111.13804Q157.45312 112.27866 156.70312 112.96616Q155.95312 113.63804 154.75 113.63804Q153.5625 113.63804 152.79688 112.98179Q152.04688 112.32554 152.04688 111.26304L153.14062 111.26304Q153.14062 111.93491 153.57812 112.34116Q154.01562 112.74741 154.76562 112.74741Q155.54688 112.74741 155.95312 112.34116Q156.375 111.91929 156.375 111.15366Q156.375 110.41929 155.92188 110.02866Q155.46875 109.62241 154.59375 109.60679L153.78125 109.60679L153.78125 108.71616Z" fill-rule="nonzero"/><path fill="#ffffff" d="M129.79688 113.51304L124.203125 113.51304L124.203125 112.73179L127.15625 109.45054Q127.8125 108.70054 128.0625 108.24741Q128.3125 107.77866 128.3125 107.27866Q128.3125 106.60679 127.90625 106.18491Q127.515625 105.74741 126.828125 105.74741Q126.03125 105.74741 125.578125 106.21616Q125.125 106.66929 125.125 107.49741L124.046875 107.49741Q124.046875 106.30991 124.796875 105.59116Q125.5625 104.85679 126.828125 104.85679Q128.03125 104.85679 128.71875 105.48179Q129.40625 106.10679 129.40625 107.15366Q129.40625 108.40366 127.796875 110.15366L125.515625 112.62241L129.79688 112.62241L129.79688 113.51304ZM134.76562 113.51304L133.6875 113.51304L133.6875 106.29429L131.5 107.09116L131.5 106.10679L134.60938 104.93491L134.76562 104.93491L134.76562 113.51304ZM143.39062 107.20054Q143.39062 107.84116 143.04688 108.34116Q142.70312 108.84116 142.14062 109.12241Q142.79688 109.40366 143.1875 109.96616Q143.57812 110.51304 143.57812 111.21616Q143.57812 112.30991 142.82812 112.98179Q142.09375 113.63804 140.875 113.63804Q139.64062 113.63804 138.89062 112.98179Q138.15625 112.30991 138.15625 111.21616Q138.15625 110.51304 138.53125 109.96616Q138.90625 109.40366 139.57812 109.12241Q139.01562 108.84116 138.6875 108.34116Q138.35938 107.84116 138.35938 107.20054Q138.35938 106.12241 139.04688 105.49741Q139.73438 104.85679 140.875 104.85679Q142.0 104.85679 142.6875 105.49741Q143.39062 106.12241 143.39062 107.20054ZM142.5 111.18491Q142.5 110.46616 142.04688 110.02866Q141.59375 109.57554 140.85938 109.57554Q140.125 109.57554 139.67188 110.02866Q139.23438 110.46616 139.23438 111.20054Q139.23438 111.91929 139.67188 112.34116Q140.10938 112.74741 140.875 112.74741Q141.625 112.74741 142.0625 112.32554Q142.5 111.90366 142.5 111.18491ZM140.875 105.74741Q140.23438 105.74741 139.82812 106.15366Q139.4375 106.54429 139.4375 107.23179Q139.4375 107.87241 139.82812 108.27866Q140.21875 108.68491 140.85938 108.68491Q141.51562 108.68491 141.90625 108.27866Q142.29688 107.87241 142.29688 107.23179Q142.29688 106.57554 141.89062 106.16929Q141.48438 105.74741 140.875 105.74741ZM148.76562 113.51304L147.6875 113.51304L147.6875 106.29429L145.5 107.09116L145.5 106.10679L148.60938 104.93491L148.76562 104.93491L148.76562 113.51304ZM153.78125 108.71616L154.59375 108.71616Q155.375 108.70054 155.8125 108.30991Q156.25 107.91929 156.25 107.24741Q156.25 105.74741 154.75 105.74741Q154.04688 105.74741 153.625 106.15366Q153.21875 106.55991 153.21875 107.21616L152.125 107.21616Q152.125 106.20054 152.85938 105.52866Q153.60938 104.85679 154.75 104.85679Q155.95312 104.85679 156.64062 105.49741Q157.32812 106.13804 157.32812 107.27866Q157.32812 107.84116 156.96875 108.35679Q156.60938 108.87241 155.98438 109.13804Q156.6875 109.35679 157.0625 109.87241Q157.45312 110.38804 157.45312 111.13804Q157.45312 112.27866 156.70312 112.96616Q155.95312 113.63804 154.75 113.63804Q153.5625 113.63804 152.79688 112.98179Q152.04688 112.32554 152.04688 111.26304L153.14062 111.26304Q153.14062 111.93491 153.57812 112.34116Q154.01562 112.74741 154.76562 112.74741Q155.54688 112.74741 155.95312 112.34116Q156.375 111.91929 156.375 111.15366Q156.375 110.41929 155.92188 110.02866Q155.46875 109.62241 154.59375 109.60679L153.78125 109.60679L153.78125 108.71616Z" fill-rule="nonzero"/><path stroke="#4285f4" stroke-width="3.0" stroke-linejoin="round" stroke-linecap="round" d="M253.21875 258.22992L249.6875 266.1518L248.54688 266.1518L252.0625 258.51117L247.45312 258.51117L247.45312 257.62054L253.21875 257.62054L253.21875 258.22992ZM258.96875 257.62054L258.96875 258.5268L258.76562 258.5268Q257.5 258.55804 256.75 259.29242Q256.0 260.01117 255.875 261.32367Q256.5625 260.55804 257.71875 260.55804Q258.82812 260.55804 259.5 261.3393Q260.17188 262.12054 260.17188 263.37054Q260.17188 264.68304 259.45312 265.47992Q258.73438 266.2768 257.51562 266.2768Q256.29688 266.2768 255.53125 265.3393Q254.78125 264.38617 254.78125 262.9018L254.78125 262.49554Q254.78125 260.13617 255.78125 258.88617Q256.78125 257.63617 258.76562 257.62054L258.96875 257.62054ZM257.54688 261.4643Q256.98438 261.4643 256.51562 261.79242Q256.04688 262.12054 255.85938 262.63617L255.85938 263.0268Q255.85938 264.0893 256.32812 264.72992Q256.8125 265.37054 257.51562 265.37054Q258.25 265.37054 258.67188 264.8393Q259.09375 264.29242 259.09375 263.41742Q259.09375 262.54242 258.67188 262.01117Q258.25 261.4643 257.54688 261.4643ZM267.29688 266.1518L261.70312 266.1518L261.70312 265.37054L264.65625 262.0893Q265.3125 261.3393 265.5625 260.88617Q265.8125 260.41742 265.8125 259.91742Q265.8125 259.24554 265.40625 258.82367Q265.01562 258.38617 264.32812 258.38617Q263.53125 258.38617 263.07812 258.85492Q262.625 259.30804 262.625 260.13617L261.54688 260.13617Q261.54688 258.94867 262.29688 258.22992Q263.0625 257.49554 264.32812 257.49554Q265.53125 257.49554 266.21875 258.12054Q266.90625 258.74554 266.90625 259.79242Q266.90625 261.04242 265.29688 262.79242L263.01562 265.26117L267.29688 265.26117L267.29688 266.1518ZM272.85938 262.4018Q272.53125 262.80804 272.04688 263.05804Q271.57812 263.29242 271.01562 263.29242Q270.28125 263.29242 269.73438 262.93304Q269.1875 262.57367 268.89062 261.91742Q268.59375 261.24554 268.59375 260.44867Q268.59375 259.60492 268.90625 258.91742Q269.23438 258.22992 269.82812 257.87054Q270.4375 257.49554 271.23438 257.49554Q272.5 257.49554 273.21875 258.44867Q273.95312 259.4018 273.95312 261.0268L273.95312 261.3393Q273.95312 263.8393 272.96875 264.97992Q271.98438 266.12054 270.0 266.1518L269.78125 266.1518L269.78125 265.24554L270.01562 265.24554Q271.35938 265.2143 272.07812 264.54242Q272.79688 263.87054 272.85938 262.4018ZM271.1875 262.4018Q271.73438 262.4018 272.1875 262.07367Q272.65625 261.72992 272.875 261.24554L272.875 260.80804Q272.875 259.74554 272.40625 259.07367Q271.9375 258.4018 271.23438 258.4018Q270.51562 258.4018 270.07812 258.94867Q269.65625 259.49554 269.65625 260.4018Q269.65625 261.2768 270.0625 261.8393Q270.48438 262.4018 271.1875 262.4018Z" fill-rule="nonzero"/><path fill="#ffffff" d="M253.21875 258.22992L249.6875 266.1518L248.54688 266.1518L252.0625 258.51117L247.45312 258.51117L247.45312 257.62054L253.21875 257.62054L253.21875 258.22992ZM258.96875 257.62054L258.96875 258.5268L258.76562 258.5268Q257.5 258.55804 256.75 259.29242Q256.0 260.01117 255.875 261.32367Q256.5625 260.55804 257.71875 260.55804Q258.82812 260.55804 259.5 261.3393Q260.17188 262.12054 260.17188 263.37054Q260.17188 264.68304 259.45312 265.47992Q258.73438 266.2768 257.51562 266.2768Q256.29688 266.2768 255.53125 265.3393Q254.78125 264.38617 254.78125 262.9018L254.78125 262.49554Q254.78125 260.13617 255.78125 258.88617Q256.78125 257.63617 258.76562 257.62054L258.96875 257.62054ZM257.54688 261.4643Q256.98438 261.4643 256.51562 261.79242Q256.04688 262.12054 255.85938 262.63617L255.85938 263.0268Q255.85938 264.0893 256.32812 264.72992Q256.8125 265.37054 257.51562 265.37054Q258.25 265.37054 258.67188 264.8393Q259.09375 264.29242 259.09375 263.41742Q259.09375 262.54242 258.67188 262.01117Q258.25 261.4643 257.54688 261.4643ZM267.29688 266.1518L261.70312 266.1518L261.70312 265.37054L264.65625 262.0893Q265.3125 261.3393 265.5625 260.88617Q265.8125 260.41742 265.8125 259.91742Q265.8125 259.24554 265.40625 258.82367Q265.01562 258.38617 264.32812 258.38617Q263.53125 258.38617 263.07812 258.85492Q262.625 259.30804 262.625 260.13617L261.54688 260.13617Q261.54688 258.94867 262.29688 258.22992Q263.0625 257.49554 264.32812 257.49554Q265.53125 257.49554 266.21875 258.12054Q266.90625 258.74554 266.90625 259.79242Q266.90625 261.04242 265.29688 262.79242L263.01562 265.26117L267.29688 265.26117L267.29688 266.1518ZM272.85938 262.4018Q272.53125 262.80804 272.04688 263.05804Q271.57812 263.29242 271.01562 263.29242Q270.28125 263.29242 269.73438 262.93304Q269.1875 262.57367 268.89062 261.91742Q268.59375 261.24554 268.59375 260.44867Q268.59375 259.60492 268.90625 258.91742Q269.23438 258.22992 269.82812 257.87054Q270.4375 257.49554 271.23438 257.49554Q272.5 257.49554 273.21875 258.44867Q273.95312 259.4018 273.95312 261.0268L273.95312 261.3393Q273.95312 263.8393 272.96875 264.97992Q271.98438 266.12054 270.0 266.1518L269.78125 266.1518L269.78125 265.24554L270.01562 265.24554Q271.35938 265.2143 272.07812 264.54242Q272.79688 263.87054 272.85938 262.4018ZM271.1875 262.4018Q271.73438 262.4018 272.1875 262.07367Q272.65625 261.72992 272.875 261.24554L272.875 260.80804Q272.875 259.74554 272.40625 259.07367Q271.9375 258.4018 271.23438 258.4018Q270.51562 258.4018 270.07812 258.94867Q269.65625 259.49554 269.65625 260.4018Q269.65625 261.2768 270.0625 261.8393Q270.48438 262.4018 271.1875 262.4018Z" fill-rule="nonzero"/><path stroke="#4285f4" stroke-width="3.0" stroke-linejoin="round" stroke-linecap="round" d="M366.76562 235.60036L365.6875 235.60036L365.6875 228.3816L363.5 229.17848L363.5 228.1941L366.60938 227.02223L366.76562 227.02223L366.76562 235.60036ZM375.5625 231.95973Q375.5625 233.86598 374.90625 234.80348Q374.26562 235.72536 372.875 235.72536Q371.51562 235.72536 370.85938 234.8191Q370.20312 233.91286 370.17188 232.10036L370.17188 230.66286Q370.17188 228.77223 370.8125 227.86598Q371.46875 226.9441 372.85938 226.9441Q374.23438 226.9441 374.89062 227.83473Q375.54688 228.70973 375.5625 230.55348L375.5625 231.95973ZM374.46875 230.47536Q374.46875 229.10036 374.07812 228.47536Q373.70312 227.83473 372.85938 227.83473Q372.03125 227.83473 371.64062 228.47536Q371.26562 229.10036 371.26562 230.39723L371.26562 232.1316Q371.26562 233.5066 371.65625 234.17848Q372.0625 234.83473 372.875 234.83473Q373.67188 234.83473 374.0625 234.20973Q374.45312 233.58473 374.46875 232.2566L374.46875 230.47536ZM381.78125 232.74098L382.96875 232.74098L382.96875 233.61598L381.78125 233.61598L381.78125 235.60036L380.70312 235.60036L380.70312 233.61598L376.8125 233.61598L376.8125 232.97536L380.625 227.0691L381.78125 227.0691L381.78125 232.74098ZM378.04688 232.74098L380.70312 232.74098L380.70312 228.55348L380.5625 228.78786L378.04688 232.74098ZM388.46875 227.0691L388.46875 227.97536L388.26562 227.97536Q387.0 228.0066 386.25 228.74098Q385.5 229.45973 385.375 230.77223Q386.0625 230.0066 387.21875 230.0066Q388.32812 230.0066 389.0 230.78786Q389.67188 231.5691 389.67188 232.8191Q389.67188 234.1316 388.95312 234.92848Q388.23438 235.72536 387.01562 235.72536Q385.79688 235.72536 385.03125 234.78786Q384.28125 233.83473 384.28125 232.35036L384.28125 231.9441Q384.28125 229.58473 385.28125 228.33473Q386.28125 227.08473 388.26562 227.0691L388.46875 227.0691ZM387.04688 230.91286Q386.48438 230.91286 386.01562 231.24098Q385.54688 231.5691 385.35938 232.08473L385.35938 232.47536Q385.35938 233.53786 385.82812 234.17848Q386.3125 234.8191 387.01562 234.8191Q387.75 234.8191 388.17188 234.28786Q388.59375 233.74098 388.59375 232.86598Q388.59375 231.99098 388.17188 231.45973Q387.75 230.91286 387.04688 230.91286ZM396.39062 229.28786Q396.39062 229.92848 396.04688 230.42848Q395.70312 230.92848 395.14062 231.20973Q395.79688 231.49098 396.1875 232.05348Q396.57812 232.60036 396.57812 233.30348Q396.57812 234.39723 395.82812 235.0691Q395.09375 235.72536 393.875 235.72536Q392.64062 235.72536 391.89062 235.0691Q391.15625 234.39723 391.15625 233.30348Q391.15625 232.60036 391.53125 232.05348Q391.90625 231.49098 392.57812 231.20973Q392.01562 230.92848 391.6875 230.42848Q391.35938 229.92848 391.35938 229.28786Q391.35938 228.20973 392.04688 227.58473Q392.73438 226.9441 393.875 226.9441Q395.0 226.9441 395.6875 227.58473Q396.39062 228.20973 396.39062 229.28786ZM395.5 233.27223Q395.5 232.55348 395.04688 232.11598Q394.59375 231.66286 393.85938 231.66286Q393.125 231.66286 392.67188 232.11598Q392.23438 232.55348 392.23438 233.28786Q392.23438 234.0066 392.67188 234.42848Q393.10938 234.83473 393.875 234.83473Q394.625 234.83473 395.0625 234.41286Q395.5 233.99098 395.5 233.27223ZM393.875 227.83473Q393.23438 227.83473 392.82812 228.24098Q392.4375 228.6316 392.4375 229.3191Q392.4375 229.95973 392.82812 230.36598Q393.21875 230.77223 393.85938 230.77223Q394.51562 230.77223 394.90625 230.36598Q395.29688 229.95973 395.29688 229.3191Q395.29688 228.66286 394.89062 228.2566Q394.48438 227.83473 393.875 227.83473Z" fill-rule="nonzero"/><path fill="#ffffff" d="M366.76562 235.60036L365.6875 235.60036L365.6875 228.3816L363.5 229.17848L363.5 228.1941L366.60938 227.02223L366.76562 227.02223L366.76562 235.60036ZM375.5625 231.95973Q375.5625 233.86598 374.90625 234.80348Q374.26562 235.72536 372.875 235.72536Q371.51562 235.72536 370.85938 234.8191Q370.20312 233.91286 370.17188 232.10036L370.17188 230.66286Q370.17188 228.77223 370.8125 227.86598Q371.46875 226.9441 372.85938 226.9441Q374.23438 226.9441 374.89062 227.83473Q375.54688 228.70973 375.5625 230.55348L375.5625 231.95973ZM374.46875 230.47536Q374.46875 229.10036 374.07812 228.47536Q373.70312 227.83473 372.85938 227.83473Q372.03125 227.83473 371.64062 228.47536Q371.26562 229.10036 371.26562 230.39723L371.26562 232.1316Q371.26562 233.5066 371.65625 234.17848Q372.0625 234.83473 372.875 234.83473Q373.67188 234.83473 374.0625 234.20973Q374.45312 233.58473 374.46875 232.2566L374.46875 230.47536ZM381.78125 232.74098L382.96875 232.74098L382.96875 233.61598L381.78125 233.61598L381.78125 235.60036L380.70312 235.60036L380.70312 233.61598L376.8125 233.61598L376.8125 232.97536L380.625 227.0691L381.78125 227.0691L381.78125 232.74098ZM378.04688 232.74098L380.70312 232.74098L380.70312 228.55348L380.5625 228.78786L378.04688 232.74098ZM388.46875 227.0691L388.46875 227.97536L388.26562 227.97536Q387.0 228.0066 386.25 228.74098Q385.5 229.45973 385.375 230.77223Q386.0625 230.0066 387.21875 230.0066Q388.32812 230.0066 389.0 230.78786Q389.67188 231.5691 389.67188 232.8191Q389.67188 234.1316 388.95312 234.92848Q388.23438 235.72536 387.01562 235.72536Q385.79688 235.72536 385.03125 234.78786Q384.28125 233.83473 384.28125 232.35036L384.28125 231.9441Q384.28125 229.58473 385.28125 228.33473Q386.28125 227.08473 388.26562 227.0691L388.46875 227.0691ZM387.04688 230.91286Q386.48438 230.91286 386.01562 231.24098Q385.54688 231.5691 385.35938 232.08473L385.35938 232.47536Q385.35938 233.53786 385.82812 234.17848Q386.3125 234.8191 387.01562 234.8191Q387.75 234.8191 388.17188 234.28786Q388.59375 233.74098 388.59375 232.86598Q388.59375 231.99098 388.17188 231.45973Q387.75 230.91286 387.04688 230.91286ZM396.39062 229.28786Q396.39062 229.92848 396.04688 230.42848Q395.70312 230.92848 395.14062 231.20973Q395.79688 231.49098 396.1875 232.05348Q396.57812 232.60036 396.57812 233.30348Q396.57812 234.39723 395.82812 235.0691Q395.09375 235.72536 393.875 235.72536Q392.64062 235.72536 391.89062 235.0691Q391.15625 234.39723 391.15625 233.30348Q391.15625 232.60036 391.53125 232.05348Q391.90625 231.49098 392.57812 231.20973Q392.01562 230.92848 391.6875 230.42848Q391.35938 229.92848 391.35938 229.28786Q391.35938 228.20973 392.04688 227.58473Q392.73438 226.9441 393.875 226.9441Q395.0 226.9441 395.6875 227.58473Q396.39062 228.20973 396.39062 229.28786ZM395.5 233.27223Q395.5 232.55348 395.04688 232.11598Q394.59375 231.66286 393.85938 231.66286Q393.125 231.66286 392.67188 232.11598Q392.23438 232.55348 392.23438 233.28786Q392.23438 234.0066 392.67188 234.42848Q393.10938 234.83473 393.875 234.83473Q394.625 234.83473 395.0625 234.41286Q395.5 233.99098 395.5 233.27223ZM393.875 227.83473Q393.23438 227.83473 392.82812 228.24098Q392.4375 228.6316 392.4375 229.3191Q392.4375 229.95973 392.82812 230.36598Q393.21875 230.77223 393.85938 230.77223Q394.51562 230.77223 394.90625 230.36598Q395.29688 229.95973 395.29688 229.3191Q395.29688 228.66286 394.89062 228.2566Q394.48438 227.83473 393.875 227.83473Z" fill-rule="nonzero"/><path stroke="#4285f4" stroke-width="3.0" stroke-linejoin="round" stroke-linecap="round" d="M486.76562 210.84929L485.6875 210.84929L485.6875 203.63054L483.5 204.42741L483.5 203.44304L486.60938 202.27116L486.76562 202.27116L486.76562 210.84929ZM495.79688 210.84929L490.20312 210.84929L490.20312 210.06804L493.15625 206.78679Q493.8125 206.03679 494.0625 205.58366Q494.3125 205.11491 494.3125 204.61491Q494.3125 203.94304 493.90625 203.52116Q493.51562 203.08366 492.82812 203.08366Q492.03125 203.08366 491.57812 203.55241Q491.125 204.00554 491.125 204.83366L490.04688 204.83366Q490.04688 203.64616 490.79688 202.92741Q491.5625 202.19304 492.82812 202.19304Q494.03125 202.19304 494.71875 202.81804Q495.40625 203.44304 495.40625 204.48991Q495.40625 205.73991 493.79688 207.48991L491.51562 209.95866L495.79688 209.95866L495.79688 210.84929ZM502.71875 202.92741L499.1875 210.84929L498.04688 210.84929L501.5625 203.20866L496.95312 203.20866L496.95312 202.31804L502.71875 202.31804L502.71875 202.92741ZM508.46875 202.31804L508.46875 203.22429L508.26562 203.22429Q507.0 203.25554 506.25 203.98991Q505.5 204.70866 505.375 206.02116Q506.0625 205.25554 507.21875 205.25554Q508.32812 205.25554 509.0 206.03679Q509.67188 206.81804 509.67188 208.06804Q509.67188 209.38054 508.95312 210.17741Q508.23438 210.97429 507.01562 210.97429Q505.79688 210.97429 505.03125 210.03679Q504.28125 209.08366 504.28125 207.59929L504.28125 207.19304Q504.28125 204.83366 505.28125 203.58366Q506.28125 202.33366 508.26562 202.31804L508.46875 202.31804ZM507.04688 206.16179Q506.48438 206.16179 506.01562 206.48991Q505.54688 206.81804 505.35938 207.33366L505.35938 207.72429Q505.35938 208.78679 505.82812 209.42741Q506.3125 210.06804 507.01562 210.06804Q507.75 210.06804 508.17188 209.53679Q508.59375 208.98991 508.59375 208.11491Q508.59375 207.23991 508.17188 206.70866Q507.75 206.16179 507.04688 206.16179ZM516.3906 204.53679Q516.3906 205.17741 516.0469 205.67741Q515.7031 206.17741 515.1406 206.45866Q515.7969 206.73991 516.1875 207.30241Q516.5781 207.84929 516.5781 208.55241Q516.5781 209.64616 515.8281 210.31804Q515.09375 210.97429 513.875 210.97429Q512.6406 210.97429 511.89062 210.31804Q511.15625 209.64616 511.15625 208.55241Q511.15625 207.84929 511.53125 207.30241Q511.90625 206.73991 512.5781 206.45866Q512.0156 206.17741 511.6875 205.67741Q511.35938 205.17741 511.35938 204.53679Q511.35938 203.45866 512.0469 202.83366Q512.7344 202.19304 513.875 202.19304Q515.0 202.19304 515.6875 202.83366Q516.3906 203.45866 516.3906 204.53679ZM515.5 208.52116Q515.5 207.80241 515.0469 207.36491Q514.59375 206.91179 513.8594 206.91179Q513.125 206.91179 512.6719 207.36491Q512.2344 207.80241 512.2344 208.53679Q512.2344 209.25554 512.6719 209.67741Q513.1094 210.08366 513.875 210.08366Q514.625 210.08366 515.0625 209.66179Q515.5 209.23991 515.5 208.52116ZM513.875 203.08366Q513.2344 203.08366 512.8281 203.48991Q512.4375 203.88054 512.4375 204.56804Q512.4375 205.20866 512.8281 205.61491Q513.21875 206.02116 513.8594 206.02116Q514.5156 206.02116 514.90625 205.61491Q515.2969 205.20866 515.2969 204.56804Q515.2969 203.91179 514.8906 203.50554Q514.4844 203.08366 513.875 203.08366Z" fill-rule="nonzero"/><path fill="#ffffff" d="M486.76562 210.84929L485.6875 210.84929L485.6875 203.63054L483.5 204.42741L483.5 203.44304L486.60938 202.27116L486.76562 202.27116L486.76562 210.84929ZM495.79688 210.84929L490.20312 210.84929L490.20312 210.06804L493.15625 206.78679Q493.8125 206.03679 494.0625 205.58366Q494.3125 205.11491 494.3125 204.61491Q494.3125 203.94304 493.90625 203.52116Q493.51562 203.08366 492.82812 203.08366Q492.03125 203.08366 491.57812 203.55241Q491.125 204.00554 491.125 204.83366L490.04688 204.83366Q490.04688 203.64616 490.79688 202.92741Q491.5625 202.19304 492.82812 202.19304Q494.03125 202.19304 494.71875 202.81804Q495.40625 203.44304 495.40625 204.48991Q495.40625 205.73991 493.79688 207.48991L491.51562 209.95866L495.79688 209.95866L495.79688 210.84929ZM502.71875 202.92741L499.1875 210.84929L498.04688 210.84929L501.5625 203.20866L496.95312 203.20866L496.95312 202.31804L502.71875 202.31804L502.71875 202.92741ZM508.46875 202.31804L508.46875 203.22429L508.26562 203.22429Q507.0 203.25554 506.25 203.98991Q505.5 204.70866 505.375 206.02116Q506.0625 205.25554 507.21875 205.25554Q508.32812 205.25554 509.0 206.03679Q509.67188 206.81804 509.67188 208.06804Q509.67188 209.38054 508.95312 210.17741Q508.23438 210.97429 507.01562 210.97429Q505.79688 210.97429 505.03125 210.03679Q504.28125 209.08366 504.28125 207.59929L504.28125 207.19304Q504.28125 204.83366 505.28125 203.58366Q506.28125 202.33366 508.26562 202.31804L508.46875 202.31804ZM507.04688 206.16179Q506.48438 206.16179 506.01562 206.48991Q505.54688 206.81804 505.35938 207.33366L505.35938 207.72429Q505.35938 208.78679 505.82812 209.42741Q506.3125 210.06804 507.01562 210.06804Q507.75 210.06804 508.17188 209.53679Q508.59375 208.98991 508.59375 208.11491Q508.59375 207.23991 508.17188 206.70866Q507.75 206.16179 507.04688 206.16179ZM516.3906 204.53679Q516.3906 205.17741 516.0469 205.67741Q515.7031 206.17741 515.1406 206.45866Q515.7969 206.73991 516.1875 207.30241Q516.5781 207.84929 516.5781 208.55241Q516.5781 209.64616 515.8281 210.31804Q515.09375 210.97429 513.875 210.97429Q512.6406 210.97429 511.89062 210.31804Q511.15625 209.64616 511.15625 208.55241Q511.15625 207.84929 511.53125 207.30241Q511.90625 206.73991 512.5781 206.45866Q512.0156 206.17741 511.6875 205.67741Q511.35938 205.17741 511.35938 204.53679Q511.35938 203.45866 512.0469 202.83366Q512.7344 202.19304 513.875 202.19304Q515.0 202.19304 515.6875 202.83366Q516.3906 203.45866 516.3906 204.53679ZM515.5 208.52116Q515.5 207.80241 515.0469 207.36491Q514.59375 206.91179 513.8594 206.91179Q513.125 206.91179 512.6719 207.36491Q512.2344 207.80241 512.2344 208.53679Q512.2344 209.25554 512.6719 209.67741Q513.1094 210.08366 513.875 210.08366Q514.625 210.08366 515.0625 209.66179Q515.5 209.23991 515.5 208.52116ZM513.875 203.08366Q513.2344 203.08366 512.8281 203.48991Q512.4375 203.88054 512.4375 204.56804Q512.4375 205.20866 512.8281 205.61491Q513.21875 206.02116 513.8594 206.02116Q514.5156 206.02116 514.90625 205.61491Q515.2969 205.20866 515.2969 204.56804Q515.2969 203.91179 514.8906 203.50554Q514.4844 203.08366 513.875 203.08366Z" fill-rule="nonzero"/><path fill="#000000" d="M52.6125 332.3094Q52.6125 334.21564 51.95625 335.15314Q51.315624 336.075 49.925 336.075Q48.565624 336.075 47.909374 335.16876Q47.253124 334.2625 47.221874 332.45L47.221874 331.0125Q47.221874 329.1219 47.8625 328.21564Q48.51875 327.29376 49.909374 327.29376Q51.284374 327.29376 51.940624 328.1844Q52.596874 329.0594 52.6125 330.90314L52.6125 332.3094ZM51.51875 330.825Q51.51875 329.45 51.128124 328.825Q50.753124 328.1844 49.909374 328.1844Q49.08125 328.1844 48.690624 328.825Q48.315624 329.45 48.315624 330.7469L48.315624 332.48126Q48.315624 333.85626 48.70625 334.52814Q49.1125 335.1844 49.925 335.1844Q50.721874 335.1844 51.1125 334.5594Q51.503124 333.9344 51.51875 332.60626L51.51875 330.825Z" fill-rule="nonzero"/><path fill="#000000" d="M26.753124 277.8621L27.190624 273.6121L31.565624 273.6121L31.565624 274.6121L28.1125 274.6121L27.846874 276.94022Q28.4875 276.56522 29.284374 276.56522Q30.440624 276.56522 31.128124 277.34647Q31.815624 278.1121 31.815624 279.4246Q31.815624 280.7371 31.096874 281.50272Q30.39375 282.26834 29.1125 282.26834Q27.9875 282.26834 27.26875 281.64334Q26.55 281.00272 26.45625 279.89334L27.471874 279.89334Q27.58125 280.62772 28.003124 281.00272Q28.425 281.37772 29.1125 281.37772Q29.8625 281.37772 30.3 280.8621Q30.7375 280.34647 30.7375 279.44022Q30.7375 278.58084 30.26875 278.06522Q29.8 277.5496 29.01875 277.5496Q28.315624 277.5496 27.909374 277.84647L27.628124 278.08084L26.753124 277.8621ZM38.6125 278.50272Q38.6125 280.40897 37.95625 281.34647Q37.315624 282.26834 35.925 282.26834Q34.565624 282.26834 33.909374 281.3621Q33.253124 280.45584 33.221874 278.64334L33.221874 277.20584Q33.221874 275.31522 33.8625 274.40897Q34.51875 273.4871 35.909374 273.4871Q37.284374 273.4871 37.940624 274.37772Q38.596874 275.25272 38.6125 277.09647L38.6125 278.50272ZM37.51875 277.01834Q37.51875 275.64334 37.128124 275.01834Q36.753124 274.37772 35.909374 274.37772Q35.08125 274.37772 34.690624 275.01834Q34.315624 275.64334 34.315624 276.94022L34.315624 278.6746Q34.315624 280.0496 34.70625 280.72147Q35.1125 281.37772 35.925 281.37772Q36.721874 281.37772 37.1125 280.75272Q37.503124 280.12772 37.51875 278.7996L37.51875 277.01834ZM45.6125 278.50272Q45.6125 280.40897 44.95625 281.34647Q44.315624 282.26834 42.925 282.26834Q41.565624 282.26834 40.909374 281.3621Q40.253124 280.45584 40.221874 278.64334L40.221874 277.20584Q40.221874 275.31522 40.8625 274.40897Q41.51875 273.4871 42.909374 273.4871Q44.284374 273.4871 44.940624 274.37772Q45.596874 275.25272 45.6125 277.09647L45.6125 278.50272ZM44.51875 277.01834Q44.51875 275.64334 44.128124 275.01834Q43.753124 274.37772 42.909374 274.37772Q42.08125 274.37772 41.690624 275.01834Q41.315624 275.64334 41.315624 276.94022L41.315624 278.6746Q41.315624 280.0496 41.70625 280.72147Q42.1125 281.37772 42.925 281.37772Q43.721874 281.37772 44.1125 280.75272Q44.503124 280.12772 44.51875 278.7996L44.51875 277.01834ZM52.6125 278.50272Q52.6125 280.40897 51.95625 281.34647Q51.315624 282.26834 49.925 282.26834Q48.565624 282.26834 47.909374 281.3621Q47.253124 280.45584 47.221874 278.64334L47.221874 277.20584Q47.221874 275.31522 47.8625 274.40897Q48.51875 273.4871 49.909374 273.4871Q51.284374 273.4871 51.940624 274.37772Q52.596874 275.25272 52.6125 277.09647L52.6125 278.50272ZM51.51875 277.01834Q51.51875 275.64334 51.128124 275.01834Q50.753124 274.37772 49.909374 274.37772Q49.08125 274.37772 48.690624 275.01834Q48.315624 275.64334 48.315624 276.94022L48.315624 278.6746Q48.315624 280.0496 48.70625 280.72147Q49.1125 281.37772 49.925 281.37772Q50.721874 281.37772 51.1125 280.75272Q51.503124 280.12772 51.51875 278.7996L51.51875 277.01834Z" fill-rule="nonzero"/><path fill="#000000" d="M22.815624 228.33667L21.7375 228.33667L21.7375 221.11792L19.55 221.9148L19.55 220.93042L22.659374 219.75854L22.815624 219.75854L22.815624 228.33667ZM31.6125 224.69604Q31.6125 226.6023 30.95625 227.5398Q30.315624 228.46167 28.925 228.46167Q27.565624 228.46167 26.909374 227.55542Q26.253124 226.64917 26.221874 224.83667L26.221874 223.39917Q26.221874 221.50854 26.8625 220.6023Q27.51875 219.68042 28.909374 219.68042Q30.284374 219.68042 30.940624 220.57104Q31.596874 221.44604 31.6125 223.2898L31.6125 224.69604ZM30.51875 223.21167Q30.51875 221.83667 30.128124 221.21167Q29.753124 220.57104 28.909374 220.57104Q28.08125 220.57104 27.690624 221.21167Q27.315624 221.83667 27.315624 223.13354L27.315624 224.86792Q27.315624 226.24292 27.70625 226.9148Q28.1125 227.57104 28.925 227.57104Q29.721874 227.57104 30.1125 226.94604Q30.503124 226.32104 30.51875 224.99292L30.51875 223.21167ZM38.6125 224.69604Q38.6125 226.6023 37.95625 227.5398Q37.315624 228.46167 35.925 228.46167Q34.565624 228.46167 33.909374 227.55542Q33.253124 226.64917 33.221874 224.83667L33.221874 223.39917Q33.221874 221.50854 33.8625 220.6023Q34.51875 219.68042 35.909374 219.68042Q37.284374 219.68042 37.940624 220.57104Q38.596874 221.44604 38.6125 223.2898L38.6125 224.69604ZM37.51875 223.21167Q37.51875 221.83667 37.128124 221.21167Q36.753124 220.57104 35.909374 220.57104Q35.08125 220.57104 34.690624 221.21167Q34.315624 221.83667 34.315624 223.13354L34.315624 224.86792Q34.315624 226.24292 34.70625 226.9148Q35.1125 227.57104 35.925 227.57104Q36.721874 227.57104 37.1125 226.94604Q37.503124 226.32104 37.51875 224.99292L37.51875 223.21167ZM45.6125 224.69604Q45.6125 226.6023 44.95625 227.5398Q44.315624 228.46167 42.925 228.46167Q41.565624 228.46167 40.909374 227.55542Q40.253124 226.64917 40.221874 224.83667L40.221874 223.39917Q40.221874 221.50854 40.8625 220.6023Q41.51875 219.68042 42.909374 219.68042Q44.284374 219.68042 44.940624 220.57104Q45.596874 221.44604 45.6125 223.2898L45.6125 224.69604ZM44.51875 223.21167Q44.51875 221.83667 44.128124 221.21167Q43.753124 220.57104 42.909374 220.57104Q42.08125 220.57104 41.690624 221.21167Q41.315624 221.83667 41.315624 223.13354L41.315624 224.86792Q41.315624 226.24292 41.70625 226.9148Q42.1125 227.57104 42.925 227.57104Q43.721874 227.57104 44.1125 226.94604Q44.503124 226.32104 44.51875 224.99292L44.51875 223.21167ZM52.6125 224.69604Q52.6125 226.6023 51.95625 227.5398Q51.315624 228.46167 49.925 228.46167Q48.565624 228.46167 47.909374 227.55542Q47.253124 226.64917 47.221874 224.83667L47.221874 223.39917Q47.221874 221.50854 47.8625 220.6023Q48.51875 219.68042 49.909374 219.68042Q51.284374 219.68042 51.940624 220.57104Q52.596874 221.44604 52.6125 223.2898L52.6125 224.69604ZM51.51875 223.21167Q51.51875 221.83667 51.128124 221.21167Q50.753124 220.57104 49.909374 220.57104Q49.08125 220.57104 48.690624 221.21167Q48.315624 221.83667 48.315624 223.13354L48.315624 224.86792Q48.315624 226.24292 48.70625 226.9148Q49.1125 227.57104 49.925 227.57104Q50.721874 227.57104 51.1125 226.94604Q51.503124 226.32104 51.51875 224.99292L51.51875 223.21167Z" fill-rule="nonzero"/><path fill="#000000" d="M22.815624 174.53L21.7375 174.53L21.7375 167.31125L19.55 168.10812L19.55 167.12375L22.659374 165.95187L22.815624 165.95187L22.815624 174.53ZM26.753124 170.24875L27.190624 165.99875L31.565624 165.99875L31.565624 166.99875L28.1125 166.99875L27.846874 169.32687Q28.4875 168.95187 29.284374 168.95187Q30.440624 168.95187 31.128124 169.73312Q31.815624 170.49875 31.815624 171.81125Q31.815624 173.12375 31.096874 173.88937Q30.39375 174.655 29.1125 174.655Q27.9875 174.655 27.26875 174.03Q26.55 173.38937 26.45625 172.28L27.471874 172.28Q27.58125 173.01437 28.003124 173.38937Q28.425 173.76437 29.1125 173.76437Q29.8625 173.76437 30.3 173.24875Q30.7375 172.73312 30.7375 171.82687Q30.7375 170.9675 30.26875 170.45187Q29.8 169.93625 29.01875 169.93625Q28.315624 169.93625 27.909374 170.23312L27.628124 170.4675L26.753124 170.24875ZM38.6125 170.88937Q38.6125 172.79562 37.95625 173.73312Q37.315624 174.655 35.925 174.655Q34.565624 174.655 33.909374 173.74875Q33.253124 172.8425 33.221874 171.03L33.221874 169.5925Q33.221874 167.70187 33.8625 166.79562Q34.51875 165.87375 35.909374 165.87375Q37.284374 165.87375 37.940624 166.76437Q38.596874 167.63937 38.6125 169.48312L38.6125 170.88937ZM37.51875 169.405Q37.51875 168.03 37.128124 167.405Q36.753124 166.76437 35.909374 166.76437Q35.08125 166.76437 34.690624 167.405Q34.315624 168.03 34.315624 169.32687L34.315624 171.06125Q34.315624 172.43625 34.70625 173.10812Q35.1125 173.76437 35.925 173.76437Q36.721874 173.76437 37.1125 173.13937Q37.503124 172.51437 37.51875 171.18625L37.51875 169.405ZM45.6125 170.88937Q45.6125 172.79562 44.95625 173.73312Q44.315624 174.655 42.925 174.655Q41.565624 174.655 40.909374 173.74875Q40.253124 172.8425 40.221874 171.03L40.221874 169.5925Q40.221874 167.70187 40.8625 166.79562Q41.51875 165.87375 42.909374 165.87375Q44.284374 165.87375 44.940624 166.76437Q45.596874 167.63937 45.6125 169.48312L45.6125 170.88937ZM44.51875 169.405Q44.51875 168.03 44.128124 167.405Q43.753124 166.76437 42.909374 166.76437Q42.08125 166.76437 41.690624 167.405Q41.315624 168.03 41.315624 169.32687L41.315624 171.06125Q41.315624 172.43625 41.70625 173.10812Q42.1125 173.76437 42.925 173.76437Q43.721874 173.76437 44.1125 173.13937Q44.503124 172.51437 44.51875 171.18625L44.51875 169.405ZM52.6125 170.88937Q52.6125 172.79562 51.95625 173.73312Q51.315624 174.655 49.925 174.655Q48.565624 174.655 47.909374 173.74875Q47.253124 172.8425 47.221874 171.03L47.221874 169.5925Q47.221874 167.70187 47.8625 166.79562Q48.51875 165.87375 49.909374 165.87375Q51.284374 165.87375 51.940624 166.76437Q52.596874 167.63937 52.6125 169.48312L52.6125 170.88937ZM51.51875 169.405Q51.51875 168.03 51.128124 167.405Q50.753124 166.76437 49.909374 166.76437Q49.08125 166.76437 48.690624 167.405Q48.315624 168.03 48.315624 169.32687L48.315624 171.06125Q48.315624 172.43625 48.70625 173.10812Q49.1125 173.76437 49.925 173.76437Q50.721874 173.76437 51.1125 173.13937Q51.503124 172.51437 51.51875 171.18625L51.51875 169.405Z" fill-rule="nonzero"/><path fill="#000000" d="M24.846874 120.723335L19.253124 120.723335L19.253124 119.942085L22.20625 116.660835Q22.8625 115.910835 23.1125 115.45771Q23.3625 114.98896 23.3625 114.48896Q23.3625 113.817085 22.95625 113.39521Q22.565624 112.95771 21.878124 112.95771Q21.08125 112.95771 20.628124 113.42646Q20.175 113.879585 20.175 114.70771L19.096874 114.70771Q19.096874 113.52021 19.846874 112.80146Q20.6125 112.067085 21.878124 112.067085Q23.08125 112.067085 23.76875 112.692085Q24.45625 113.317085 24.45625 114.36396Q24.45625 115.61396 22.846874 117.36396L20.565624 119.83271L24.846874 119.83271L24.846874 120.723335ZM31.6125 117.08271Q31.6125 118.98896 30.95625 119.92646Q30.315624 120.848335 28.925 120.848335Q27.565624 120.848335 26.909374 119.942085Q26.253124 119.035835 26.221874 117.223335L26.221874 115.785835Q26.221874 113.89521 26.8625 112.98896Q27.51875 112.067085 28.909374 112.067085Q30.284374 112.067085 30.940624 112.95771Q31.596874 113.83271 31.6125 115.67646L31.6125 117.08271ZM30.51875 115.598335Q30.51875 114.223335 30.128124 113.598335Q29.753124 112.95771 28.909374 112.95771Q28.08125 112.95771 27.690624 113.598335Q27.315624 114.223335 27.315624 115.52021L27.315624 117.254585Q27.315624 118.629585 27.70625 119.30146Q28.1125 119.95771 28.925 119.95771Q29.721874 119.95771 30.1125 119.33271Q30.503124 118.70771 30.51875 117.379585L30.51875 115.598335ZM38.6125 117.08271Q38.6125 118.98896 37.95625 119.92646Q37.315624 120.848335 35.925 120.848335Q34.565624 120.848335 33.909374 119.942085Q33.253124 119.035835 33.221874 117.223335L33.221874 115.785835Q33.221874 113.89521 33.8625 112.98896Q34.51875 112.067085 35.909374 112.067085Q37.284374 112.067085 37.940624 112.95771Q38.596874 113.83271 38.6125 115.67646L38.6125 117.08271ZM37.51875 115.598335Q37.51875 114.223335 37.128124 113.598335Q36.753124 112.95771 35.909374 112.95771Q35.08125 112.95771 34.690624 113.598335Q34.315624 114.223335 34.315624 115.52021L34.315624 117.254585Q34.315624 118.629585 34.70625 119.30146Q35.1125 119.95771 35.925 119.95771Q36.721874 119.95771 37.1125 119.33271Q37.503124 118.70771 37.51875 117.379585L37.51875 115.598335ZM45.6125 117.08271Q45.6125 118.98896 44.95625 119.92646Q44.315624 120.848335 42.925 120.848335Q41.565624 120.848335 40.909374 119.942085Q40.253124 119.035835 40.221874 117.223335L40.221874 115.785835Q40.221874 113.89521 40.8625 112.98896Q41.51875 112.067085 42.909374 112.067085Q44.284374 112.067085 44.940624 112.95771Q45.596874 113.83271 45.6125 115.67646L45.6125 117.08271ZM44.51875 115.598335Q44.51875 114.223335 44.128124 113.598335Q43.753124 112.95771 42.909374 112.95771Q42.08125 112.95771 41.690624 113.598335Q41.315624 114.223335 41.315624 115.52021L41.315624 117.254585Q41.315624 118.629585 41.70625 119.30146Q42.1125 119.95771 42.925 119.95771Q43.721874 119.95771 44.1125 119.33271Q44.503124 118.70771 44.51875 117.379585L44.51875 115.598335ZM52.6125 117.08271Q52.6125 118.98896 51.95625 119.92646Q51.315624 120.848335 49.925 120.848335Q48.565624 120.848335 47.909374 119.942085Q47.253124 119.035835 47.221874 117.223335L47.221874 115.785835Q47.221874 113.89521 47.8625 112.98896Q48.51875 112.067085 49.909374 112.067085Q51.284374 112.067085 51.940624 112.95771Q52.596874 113.83271 52.6125 115.67646L52.6125 117.08271ZM51.51875 115.598335Q51.51875 114.223335 51.128124 113.598335Q50.753124 112.95771 49.909374 112.95771Q49.08125 112.95771 48.690624 113.598335Q48.315624 114.223335 48.315624 115.52021L48.315624 117.254585Q48.315624 118.629585 48.70625 119.30146Q49.1125 119.95771 49.925 119.95771Q50.721874 119.95771 51.1125 119.33271Q51.503124 118.70771 51.51875 117.379585L51.51875 115.598335Z" fill-rule="nonzero"/><path fill="#000000" d="M24.846874 66.916664L19.253124 66.916664L19.253124 66.135414L22.20625 62.854164Q22.8625 62.104164 23.1125 61.65104Q23.3625 61.18229 23.3625 60.68229Q23.3625 60.010414 22.95625 59.58854Q22.565624 59.15104 21.878124 59.15104Q21.08125 59.15104 20.628124 59.61979Q20.175 60.072914 20.175 60.90104L19.096874 60.90104Q19.096874 59.71354 19.846874 58.99479Q20.6125 58.260414 21.878124 58.260414Q23.08125 58.260414 23.76875 58.885414Q24.45625 59.510414 24.45625 60.55729Q24.45625 61.80729 22.846874 63.55729L20.565624 66.02604L24.846874 66.02604L24.846874 66.916664ZM26.753124 62.635414L27.190624 58.385414L31.565624 58.385414L31.565624 59.385414L28.1125 59.385414L27.846874 61.71354Q28.4875 61.33854 29.284374 61.33854Q30.440624 61.33854 31.128124 62.11979Q31.815624 62.885414 31.815624 64.197914Q31.815624 65.510414 31.096874 66.27604Q30.39375 67.041664 29.1125 67.041664Q27.9875 67.041664 27.26875 66.416664Q26.55 65.77604 26.45625 64.666664L27.471874 64.666664Q27.58125 65.40104 28.003124 65.77604Q28.425 66.15104 29.1125 66.15104Q29.8625 66.15104 30.3 65.635414Q30.7375 65.11979 30.7375 64.21354Q30.7375 63.354164 30.26875 62.83854Q29.8 62.322914 29.01875 62.322914Q28.315624 62.322914 27.909374 62.61979L27.628124 62.854164L26.753124 62.635414ZM38.6125 63.27604Q38.6125 65.18229 37.95625 66.11979Q37.315624 67.041664 35.925 67.041664Q34.565624 67.041664 33.909374 66.135414Q33.253124 65.229164 33.221874 63.416664L33.221874 61.979164Q33.221874 60.08854 33.8625 59.18229Q34.51875 58.260414 35.909374 58.260414Q37.284374 58.260414 37.940624 59.15104Q38.596874 60.02604 38.6125 61.86979L38.6125 63.27604ZM37.51875 61.791664Q37.51875 60.416664 37.128124 59.791664Q36.753124 59.15104 35.909374 59.15104Q35.08125 59.15104 34.690624 59.791664Q34.315624 60.416664 34.315624 61.71354L34.315624 63.447914Q34.315624 64.822914 34.70625 65.49479Q35.1125 66.15104 35.925 66.15104Q36.721874 66.15104 37.1125 65.52604Q37.503124 64.90104 37.51875 63.572914L37.51875 61.791664ZM45.6125 63.27604Q45.6125 65.18229 44.95625 66.11979Q44.315624 67.041664 42.925 67.041664Q41.565624 67.041664 40.909374 66.135414Q40.253124 65.229164 40.221874 63.416664L40.221874 61.979164Q40.221874 60.08854 40.8625 59.18229Q41.51875 58.260414 42.909374 58.260414Q44.284374 58.260414 44.940624 59.15104Q45.596874 60.02604 45.6125 61.86979L45.6125 63.27604ZM44.51875 61.791664Q44.51875 60.416664 44.128124 59.791664Q43.753124 59.15104 42.909374 59.15104Q42.08125 59.15104 41.690624 59.791664Q41.315624 60.416664 41.315624 61.71354L41.315624 63.447914Q41.315624 64.822914 41.70625 65.49479Q42.1125 66.15104 42.925 66.15104Q43.721874 66.15104 44.1125 65.52604Q44.503124 64.90104 44.51875 63.572914L44.51875 61.791664ZM52.6125 63.27604Q52.6125 65.18229 51.95625 66.11979Q51.315624 67.041664 49.925 67.041664Q48.565624 67.041664 47.909374 66.135414Q47.253124 65.229164 47.221874 63.416664L47.221874 61.979164Q47.221874 60.08854 47.8625 59.18229Q48.51875 58.260414 49.909374 58.260414Q51.284374 58.260414 51.940624 59.15104Q52.596874 60.02604 52.6125 61.86979L52.6125 63.27604ZM51.51875 61.791664Q51.51875 60.416664 51.128124 59.791664Q50.753124 59.15104 49.909374 59.15104Q49.08125 59.15104 48.690624 59.791664Q48.315624 60.416664 48.315624 61.71354L48.315624 63.447914Q48.315624 64.822914 48.70625 65.49479Q49.1125 66.15104 49.925 66.15104Q50.721874 66.15104 51.1125 65.52604Q51.503124 64.90104 51.51875 63.572914L51.51875 61.791664Z" fill-rule="nonzero"/><path fill="#000000" d="M129.59698 340.91876L130.73761 340.91876L130.73761 346.96564Q130.73761 348.1844 129.98761 348.8875Q129.25323 349.575 128.03448 349.575Q126.76886 349.575 126.05011 348.91876Q125.346985 348.2625 125.346985 347.09064L126.471985 347.09064Q126.471985 347.825 126.86261 348.2469Q127.26886 348.65314 128.03448 348.65314Q128.73761 348.65314 129.15948 348.21564Q129.59698 347.7625 129.59698 346.98126L129.59698 340.91876ZM135.53448 345.65314Q134.09698 345.23126 133.42511 344.6219Q132.76886 344.0125 132.76886 343.1219Q132.76886 342.1219 133.56573 341.46564Q134.37823 340.79376 135.67511 340.79376Q136.55011 340.79376 137.23761 341.1375Q137.92511 341.48126 138.30011 342.075Q138.69073 342.66876 138.69073 343.3875L137.55011 343.3875Q137.55011 342.60626 137.05011 342.16876Q136.56573 341.73126 135.67511 341.73126Q134.84698 341.73126 134.37823 342.10626Q133.90948 342.46564 133.90948 343.10626Q133.90948 343.6375 134.34698 343.9969Q134.80011 344.35626 135.86261 344.65314Q136.92511 344.95 137.51886 345.3094Q138.12823 345.66876 138.40948 346.15314Q138.70636 346.6375 138.70636 347.27814Q138.70636 348.325 137.89386 348.95Q137.08136 349.575 135.73761 349.575Q134.84698 349.575 134.08136 349.23126Q133.33136 348.8875 132.90948 348.3094Q132.50323 347.71564 132.50323 346.98126L133.62823 346.98126Q133.62823 347.7469 134.20636 348.2Q134.78448 348.65314 135.73761 348.65314Q136.62823 348.65314 137.09698 348.29376Q137.56573 347.91876 137.56573 347.29376Q137.56573 346.66876 137.12823 346.325Q136.69073 345.98126 135.53448 345.65314ZM146.58136 345.46564Q146.58136 346.71564 146.15948 347.65314Q145.73761 348.575 144.95636 349.075Q144.19073 349.575 143.15948 349.575Q142.15948 349.575 141.37823 349.075Q140.59698 348.575 140.15948 347.66876Q139.73761 346.7469 139.72198 345.52814L139.72198 344.91876Q139.72198 343.6844 140.14386 342.7469Q140.58136 341.8094 141.36261 341.3094Q142.14386 340.79376 143.15948 340.79376Q144.17511 340.79376 144.95636 341.29376Q145.73761 341.79376 146.15948 342.73126Q146.58136 343.66876 146.58136 344.91876L146.58136 345.46564ZM145.47198 344.90314Q145.47198 343.3875 144.86261 342.575Q144.25323 341.7625 143.15948 341.7625Q142.08136 341.7625 141.47198 342.575Q140.86261 343.3875 140.84698 344.825L140.84698 345.46564Q140.84698 346.9344 141.45636 347.77814Q142.08136 348.60626 143.15948 348.60626Q144.25323 348.60626 144.84698 347.825Q145.45636 347.02814 145.47198 345.54376L145.47198 344.90314ZM154.58136 349.45L153.45636 349.45L149.15948 342.8719L149.15948 349.45L148.01886 349.45L148.01886 340.91876L149.15948 340.91876L153.45636 347.52814L153.45636 340.91876L154.58136 340.91876L154.58136 349.45Z" fill-rule="nonzero"/><path fill="#000000" d="M256.80835 348.325Q256.37085 348.95 255.58961 349.2625Q254.80836 349.575 253.77711 349.575Q252.74586 349.575 251.93336 349.09064Q251.12086 348.59064 250.68336 347.6844Q250.24586 346.77814 250.23024 345.59064L250.23024 344.85626Q250.23024 342.91876 251.12086 341.85626Q252.02711 340.79376 253.65211 340.79376Q254.99586 340.79376 255.80836 341.48126Q256.62085 342.16876 256.80835 343.41876L255.68336 343.41876Q255.35524 341.73126 253.66774 341.73126Q252.52711 341.73126 251.94899 342.52814Q251.37086 343.3094 251.35524 344.825L251.35524 345.5125Q251.35524 346.95 252.01149 347.8094Q252.66774 348.65314 253.79274 348.65314Q254.41774 348.65314 254.88649 348.5125Q255.37086 348.3719 255.68336 348.02814L255.68336 346.1219L253.71461 346.1219L253.71461 345.2L256.80835 345.2L256.80835 348.325ZM258.04272 346.21564Q258.04272 345.29376 258.4021 344.54376Q258.7771 343.79376 259.43335 343.40314Q260.0896 342.9969 260.91772 342.9969Q262.2146 342.9969 263.01147 343.8875Q263.82397 344.77814 263.82397 346.27814L263.82397 346.35626Q263.82397 347.27814 263.4646 348.0125Q263.10522 348.7469 262.44897 349.16876Q261.79272 349.575 260.93335 349.575Q259.6521 349.575 258.8396 348.6844Q258.04272 347.77814 258.04272 346.29376L258.04272 346.21564ZM259.13647 346.35626Q259.13647 347.40314 259.62085 348.04376Q260.12085 348.6844 260.93335 348.6844Q261.76147 348.6844 262.24585 348.04376Q262.73022 347.3875 262.73022 346.21564Q262.73022 345.1844 262.23022 344.54376Q261.74585 343.8875 260.91772 343.8875Q260.12085 343.8875 259.62085 344.52814Q259.13647 345.15314 259.13647 346.35626ZM270.69897 346.35626Q270.69897 347.8094 270.0271 348.7Q269.37085 349.575 268.24585 349.575Q267.04272 349.575 266.38647 348.71564L266.32397 349.45L265.3396 349.45L265.3396 340.45L266.41772 340.45L266.41772 343.8094Q267.07397 342.9969 268.23022 342.9969Q269.38647 342.9969 270.04272 343.8719Q270.69897 344.73126 270.69897 346.2625L270.69897 346.35626ZM269.62085 346.23126Q269.62085 345.1219 269.18335 344.52814Q268.76147 343.91876 267.9646 343.91876Q266.88647 343.91876 266.41772 344.90314L266.41772 347.65314Q266.91772 348.65314 267.9646 348.65314Q268.74585 348.65314 269.18335 348.04376Q269.62085 347.4344 269.62085 346.23126Z" fill-rule="nonzero"/><path fill="#000000" d="M343.926 340.91876L346.72287 347.8719L349.50412 340.91876L350.97287 340.91876L350.97287 349.45L349.84787 349.45L349.84787 346.1219L349.95724 342.54376L347.14474 349.45L346.28537 349.45L343.4885 342.5594L343.59787 346.1219L343.59787 349.45L342.47287 349.45L342.47287 340.91876L343.926 340.91876ZM354.94162 349.575Q353.64474 349.575 352.83224 348.73126Q352.03537 347.8719 352.03537 346.45L352.03537 346.2625Q352.03537 345.3094 352.39474 344.575Q352.75412 343.825 353.39474 343.41876Q354.051 342.9969 354.801 342.9969Q356.03537 342.9969 356.72287 343.8094Q357.41037 344.6219 357.41037 346.1375L357.41037 346.59064L353.1135 346.59064Q353.14474 347.52814 353.66037 348.10626Q354.19162 348.6844 355.00412 348.6844Q355.56662 348.6844 355.95724 348.45Q356.3635 348.21564 356.676 347.825L357.33224 348.34064Q356.53537 349.575 354.94162 349.575ZM354.801 343.8875Q354.14474 343.8875 353.69162 344.3719Q353.25412 344.84064 353.16037 345.7L356.33224 345.7L356.33224 345.6219Q356.28537 344.79376 355.87912 344.34064Q355.4885 343.8875 354.801 343.8875ZM362.00412 347.7625Q362.00412 347.325 361.66037 347.09064Q361.33224 346.84064 360.50412 346.66876Q359.69162 346.4969 359.20724 346.2469Q358.72287 345.9969 358.4885 345.66876Q358.26974 345.325 358.26974 344.85626Q358.26974 344.075 358.926 343.54376Q359.58224 342.9969 360.6135 342.9969Q361.69162 342.9969 362.34787 343.5594Q363.01974 344.10626 363.01974 344.96564L361.94162 344.96564Q361.94162 344.52814 361.551 344.21564Q361.176 343.8875 360.6135 343.8875Q360.01974 343.8875 359.676 344.15314Q359.34787 344.40314 359.34787 344.8094Q359.34787 345.2 359.66037 345.40314Q359.97287 345.60626 360.78537 345.79376Q361.59787 345.96564 362.09787 346.21564Q362.59787 346.46564 362.83224 346.825Q363.08224 347.1844 363.08224 347.6844Q363.08224 348.54376 362.39474 349.0594Q361.72287 349.575 360.64474 349.575Q359.87912 349.575 359.28537 349.3094Q358.70724 349.02814 358.37912 348.54376Q358.051 348.0594 358.051 347.4969L359.12912 347.4969Q359.16037 348.04376 359.56662 348.3719Q359.97287 348.6844 360.64474 348.6844Q361.25412 348.6844 361.62912 348.4344Q362.00412 348.1844 362.00412 347.7625ZM368.00412 347.7625Q368.00412 347.325 367.66037 347.09064Q367.33224 346.84064 366.50412 346.66876Q365.69162 346.4969 365.20724 346.2469Q364.72287 345.9969 364.4885 345.66876Q364.26974 345.325 364.26974 344.85626Q364.26974 344.075 364.926 343.54376Q365.58224 342.9969 366.6135 342.9969Q367.69162 342.9969 368.34787 343.5594Q369.01974 344.10626 369.01974 344.96564L367.94162 344.96564Q367.94162 344.52814 367.551 344.21564Q367.176 343.8875 366.6135 343.8875Q366.01974 343.8875 365.676 344.15314Q365.34787 344.40314 365.34787 344.8094Q365.34787 345.2 365.66037 345.40314Q365.97287 345.60626 366.78537 345.79376Q367.59787 345.96564 368.09787 346.21564Q368.59787 346.46564 368.83224 346.825Q369.08224 347.1844 369.08224 347.6844Q369.08224 348.54376 368.39474 349.0594Q367.72287 349.575 366.64474 349.575Q365.87912 349.575 365.28537 349.3094Q364.70724 349.02814 364.37912 348.54376Q364.051 348.0594 364.051 347.4969L365.12912 347.4969Q365.16037 348.04376 365.56662 348.3719Q365.97287 348.6844 366.64474 348.6844Q367.25412 348.6844 367.62912 348.4344Q368.00412 348.1844 368.00412 347.7625ZM374.22287 349.45Q374.12912 349.2625 374.06662 348.77814Q373.31662 349.575 372.26974 349.575Q371.33224 349.575 370.72287 349.04376Q370.12912 348.5125 370.12912 347.6844Q370.12912 346.7 370.87912 346.15314Q371.62912 345.60626 373.00412 345.60626L374.051 345.60626L374.051 345.10626Q374.051 344.54376 373.70724 344.21564Q373.37912 343.8719 372.70724 343.8719Q372.12912 343.8719 371.7385 344.16876Q371.34787 344.45 371.34787 344.8719L370.25412 344.8719Q370.25412 344.3875 370.58224 343.95Q370.926 343.5125 371.50412 343.2625Q372.08224 342.9969 372.76974 342.9969Q373.87912 342.9969 374.4885 343.54376Q375.1135 344.09064 375.14474 345.04376L375.14474 347.96564Q375.14474 348.84064 375.3635 349.35626L375.3635 349.45L374.22287 349.45ZM372.426 348.6219Q372.94162 348.6219 373.39474 348.35626Q373.84787 348.09064 374.051 347.66876L374.051 346.3719L373.20724 346.3719Q371.20724 346.3719 371.20724 347.54376Q371.20724 348.04376 371.551 348.34064Q371.89474 348.6219 372.426 348.6219ZM377.051 346.23126Q377.051 344.7469 377.7385 343.8719Q378.426 342.9969 379.551 342.9969Q380.70724 342.9969 381.3635 343.8094L381.41037 343.10626L382.41037 343.10626L382.41037 349.29376Q382.41037 350.52814 381.676 351.23126Q380.94162 351.95 379.72287 351.95Q379.03537 351.95 378.37912 351.65314Q377.72287 351.35626 377.37912 350.85626L377.94162 350.2Q378.62912 351.0594 379.64474 351.0594Q380.426 351.0594 380.8635 350.60626Q381.31662 350.16876 381.31662 349.35626L381.31662 348.8094Q380.66037 349.575 379.53537 349.575Q378.426 349.575 377.7385 348.6844Q377.051 347.77814 377.051 346.23126ZM378.14474 346.35626Q378.14474 347.41876 378.58224 348.04376Q379.01974 348.65314 379.81662 348.65314Q380.83224 348.65314 381.31662 347.71564L381.31662 344.825Q380.81662 343.91876 379.81662 343.91876Q379.03537 343.91876 378.58224 344.52814Q378.14474 345.1375 378.14474 346.35626ZM386.94162 349.575Q385.64474 349.575 384.83224 348.73126Q384.03537 347.8719 384.03537 346.45L384.03537 346.2625Q384.03537 345.3094 384.39474 344.575Q384.75412 343.825 385.39474 343.41876Q386.051 342.9969 386.801 342.9969Q388.03537 342.9969 388.72287 343.8094Q389.41037 344.6219 389.41037 346.1375L389.41037 346.59064L385.1135 346.59064Q385.14474 347.52814 385.66037 348.10626Q386.19162 348.6844 387.00412 348.6844Q387.56662 348.6844 387.95724 348.45Q388.3635 348.21564 388.676 347.825L389.33224 348.34064Q388.53537 349.575 386.94162 349.575ZM386.801 343.8875Q386.14474 343.8875 385.69162 344.3719Q385.25412 344.84064 385.16037 345.7L388.33224 345.7L388.33224 345.6219Q388.28537 344.79376 387.87912 344.34064Q387.4885 343.8875 386.801 343.8875ZM394.59787 346.10626L394.59787 349.45L393.47287 349.45L393.47287 340.91876L396.62912 340.91876Q398.01974 340.91876 398.81662 341.6375Q399.6135 342.34064 399.6135 343.52814Q399.6135 344.7625 398.83224 345.4344Q398.06662 346.10626 396.6135 346.10626L394.59787 346.10626ZM394.59787 345.1844L396.62912 345.1844Q397.53537 345.1844 398.00412 344.7625Q398.4885 344.34064 398.4885 343.54376Q398.4885 342.77814 398.00412 342.325Q397.53537 341.85626 396.69162 341.84064L394.59787 341.84064L394.59787 345.1844ZM405.22287 349.45Q405.12912 349.2625 405.06662 348.77814Q404.31662 349.575 403.26974 349.575Q402.33224 349.575 401.72287 349.04376Q401.12912 348.5125 401.12912 347.6844Q401.12912 346.7 401.87912 346.15314Q402.62912 345.60626 404.00412 345.60626L405.051 345.60626L405.051 345.10626Q405.051 344.54376 404.70724 344.21564Q404.37912 343.8719 403.70724 343.8719Q403.12912 343.8719 402.7385 344.16876Q402.34787 344.45 402.34787 344.8719L401.25412 344.8719Q401.25412 344.3875 401.58224 343.95Q401.926 343.5125 402.50412 343.2625Q403.08224 342.9969 403.76974 342.9969Q404.87912 342.9969 405.4885 343.54376Q406.1135 344.09064 406.14474 345.04376L406.14474 347.96564Q406.14474 348.84064 406.3635 349.35626L406.3635 349.45L405.22287 349.45ZM403.426 348.6219Q403.94162 348.6219 404.39474 348.35626Q404.84787 348.09064 405.051 347.66876L405.051 346.3719L404.20724 346.3719Q402.20724 346.3719 402.20724 347.54376Q402.20724 348.04376 402.551 348.34064Q402.89474 348.6219 403.426 348.6219ZM410.84787 348.6844Q411.426 348.6844 411.8635 348.34064Q412.301 347.98126 412.34787 347.45L413.37912 347.45Q413.34787 347.9969 412.9885 348.4969Q412.64474 348.98126 412.06662 349.27814Q411.50412 349.575 410.84787 349.575Q409.551 349.575 408.78537 348.71564Q408.03537 347.84064 408.03537 346.34064L408.03537 346.15314Q408.03537 345.23126 408.3635 344.5125Q408.70724 343.79376 409.33224 343.40314Q409.97287 342.9969 410.84787 342.9969Q411.91037 342.9969 412.6135 343.6375Q413.33224 344.2625 413.37912 345.29376L412.34787 345.29376Q412.301 344.66876 411.87912 344.27814Q411.45724 343.8875 410.84787 343.8875Q410.01974 343.8875 409.56662 344.48126Q409.1135 345.075 409.1135 346.2L409.1135 346.40314Q409.1135 347.4969 409.56662 348.09064Q410.01974 348.6844 410.84787 348.6844ZM416.08224 346.5125L415.39474 347.21564L415.39474 349.45L414.31662 349.45L414.31662 340.45L415.39474 340.45L415.39474 345.8875L415.97287 345.2L417.95724 343.10626L419.26974 343.10626L416.801 345.7625L419.56662 349.45L418.28537 349.45L416.08224 346.5125Z" fill-rule="nonzero"/><path fill="#000000" d="M483.2624 348.325Q482.8249 348.95 482.04364 349.2625Q481.2624 349.575 480.23114 349.575Q479.1999 349.575 478.3874 349.09064Q477.5749 348.59064 477.1374 347.6844Q476.6999 346.77814 476.68427 345.59064L476.68427 344.85626Q476.68427 342.91876 477.5749 341.85626Q478.48114 340.79376 480.10614 340.79376Q481.4499 340.79376 482.2624 341.48126Q483.0749 342.16876 483.2624 343.41876L482.1374 343.41876Q481.80927 341.73126 480.12177 341.73126Q478.98114 341.73126 478.403 342.52814Q477.8249 343.3094 477.80927 344.825L477.80927 345.5125Q477.80927 346.95 478.4655 347.8094Q479.12177 348.65314 480.24677 348.65314Q480.87177 348.65314 481.3405 348.5125Q481.8249 348.3719 482.1374 348.02814L482.1374 346.1219L480.16864 346.1219L480.16864 345.2L483.2624 345.2L483.2624 348.325ZM484.49677 346.21564Q484.49677 345.29376 484.85614 344.54376Q485.23114 343.79376 485.8874 343.40314Q486.54364 342.9969 487.37177 342.9969Q488.66864 342.9969 489.4655 343.8875Q490.278 344.77814 490.278 346.27814L490.278 346.35626Q490.278 347.27814 489.91864 348.0125Q489.55927 348.7469 488.903 349.16876Q488.24677 349.575 487.3874 349.575Q486.10614 349.575 485.29364 348.6844Q484.49677 347.77814 484.49677 346.29376L484.49677 346.21564ZM485.5905 346.35626Q485.5905 347.40314 486.0749 348.04376Q486.5749 348.6844 487.3874 348.6844Q488.2155 348.6844 488.6999 348.04376Q489.18427 347.3875 489.18427 346.21564Q489.18427 345.1844 488.68427 344.54376Q488.1999 343.8875 487.37177 343.8875Q486.5749 343.8875 486.0749 344.52814Q485.5905 345.15314 485.5905 346.35626ZM498.528 340.91876L499.66864 340.91876L499.66864 346.96564Q499.66864 348.1844 498.91864 348.8875Q498.18427 349.575 496.9655 349.575Q495.6999 349.575 494.98114 348.91876Q494.278 348.2625 494.278 347.09064L495.403 347.09064Q495.403 347.825 495.79364 348.2469Q496.1999 348.65314 496.9655 348.65314Q497.66864 348.65314 498.0905 348.21564Q498.528 347.7625 498.528 346.98126L498.528 340.91876ZM504.4655 345.65314Q503.028 345.23126 502.35614 344.6219Q501.6999 344.0125 501.6999 343.1219Q501.6999 342.1219 502.49677 341.46564Q503.30927 340.79376 504.60614 340.79376Q505.48114 340.79376 506.16864 341.1375Q506.85614 341.48126 507.23114 342.075Q507.62177 342.66876 507.62177 343.3875L506.48114 343.3875Q506.48114 342.60626 505.98114 342.16876Q505.49677 341.73126 504.60614 341.73126Q503.778 341.73126 503.30927 342.10626Q502.8405 342.46564 502.8405 343.10626Q502.8405 343.6375 503.278 343.9969Q503.73114 344.35626 504.79364 344.65314Q505.85614 344.95 506.4499 345.3094Q507.05927 345.66876 507.3405 346.15314Q507.6374 346.6375 507.6374 347.27814Q507.6374 348.325 506.8249 348.95Q506.0124 349.575 504.66864 349.575Q503.778 349.575 503.0124 349.23126Q502.2624 348.8875 501.8405 348.3094Q501.43427 347.71564 501.43427 346.98126L502.55927 346.98126Q502.55927 347.7469 503.1374 348.2Q503.7155 348.65314 504.66864 348.65314Q505.55927 348.65314 506.028 348.29376Q506.49677 347.91876 506.49677 347.29376Q506.49677 346.66876 506.05927 346.325Q505.62177 345.98126 504.4655 345.65314ZM515.5124 345.46564Q515.5124 346.71564 515.0905 347.65314Q514.66864 348.575 513.8874 349.075Q513.12177 349.575 512.0905 349.575Q511.0905 349.575 510.30927 349.075Q509.528 348.575 509.0905 347.66876Q508.66864 346.7469 508.653 345.52814L508.653 344.91876Q508.653 343.6844 509.0749 342.7469Q509.5124 341.8094 510.29364 341.3094Q511.0749 340.79376 512.0905 340.79376Q513.10614 340.79376 513.8874 341.29376Q514.66864 341.79376 515.0905 342.73126Q515.5124 343.66876 515.5124 344.91876L515.5124 345.46564ZM514.403 344.90314Q514.403 343.3875 513.79364 342.575Q513.18427 341.7625 512.0905 341.7625Q511.0124 341.7625 510.403 342.575Q509.79364 343.3875 509.778 344.825L509.778 345.46564Q509.778 346.9344 510.3874 347.77814Q511.0124 348.60626 512.0905 348.60626Q513.18427 348.60626 513.778 347.825Q514.3874 347.02814 514.403 345.54376L514.403 344.90314ZM523.5124 349.45L522.3874 349.45L518.0905 342.8719L518.0905 349.45L516.9499 349.45L516.9499 340.91876L518.0905 340.91876L522.3874 347.52814L522.3874 340.91876L523.5124 340.91876L523.5124 349.45Z" fill-rule="nonzero"/><path fill="#000000" d="M27.2375 30.971874L21.08125 30.971874L21.08125 36.01875L28.2375 36.01875L28.2375 37.55L19.20625 37.55L19.20625 23.33125L28.14375 23.33125L28.14375 24.878124L21.08125 24.878124L21.08125 29.440624L27.2375 29.440624L27.2375 30.971874ZM31.628124 26.9875L31.690624 28.315624Q32.89375 26.784374 34.846874 26.784374Q38.20625 26.784374 38.221874 30.565624L38.221874 37.55L36.425 37.55L36.425 30.55Q36.409374 29.409374 35.89375 28.8625Q35.39375 28.315624 34.3 28.315624Q33.425 28.315624 32.753124 28.784374Q32.096874 29.253124 31.721874 30.01875L31.721874 37.55L29.925 37.55L29.925 26.9875L31.628124 26.9875ZM45.159374 36.26875Q46.128124 36.26875 46.846874 35.690624Q47.565624 35.096874 47.64375 34.221874L49.3625 34.221874Q49.3 35.128124 48.721874 35.95625Q48.159374 36.76875 47.190624 37.26875Q46.2375 37.753124 45.159374 37.753124Q43.003124 37.753124 41.721874 36.315624Q40.45625 34.8625 40.45625 32.3625L40.45625 32.065624Q40.45625 30.51875 41.01875 29.315624Q41.58125 28.1125 42.64375 27.45625Q43.70625 26.784374 45.14375 26.784374Q46.925 26.784374 48.096874 27.846874Q49.284374 28.909374 49.3625 30.6125L47.64375 30.6125Q47.565624 29.596874 46.8625 28.940624Q46.175 28.26875 45.14375 28.26875Q43.76875 28.26875 43.003124 29.26875Q42.253124 30.253124 42.253124 32.128124L42.253124 32.471874Q42.253124 34.3 43.003124 35.284374Q43.753124 36.26875 45.159374 36.26875ZM50.440624 32.175Q50.440624 30.6125 51.05 29.378124Q51.659374 28.128124 52.7375 27.45625Q53.83125 26.784374 55.2375 26.784374Q57.39375 26.784374 58.721874 28.284374Q60.065624 29.76875 60.065624 32.253124L60.065624 32.378124Q60.065624 33.925 59.471874 35.159374Q58.878124 36.378124 57.76875 37.065624Q56.675 37.753124 55.253124 37.753124Q53.1125 37.753124 51.76875 36.253124Q50.440624 34.753124 50.440624 32.3L50.440624 32.175ZM52.253124 32.378124Q52.253124 34.14375 53.065624 35.20625Q53.89375 36.26875 55.253124 36.26875Q56.628124 36.26875 57.440624 35.190624Q58.253124 34.1125 58.253124 32.175Q58.253124 30.425 57.425 29.346874Q56.596874 28.26875 55.2375 28.26875Q53.89375 28.26875 53.065624 29.33125Q52.253124 30.39375 52.253124 32.378124ZM61.471874 32.175Q61.471874 29.753124 62.628124 28.26875Q63.784374 26.784374 65.64375 26.784374Q67.50313 26.784374 68.58125 28.05L68.58125 22.55L70.39375 22.55L70.39375 37.55L68.7375 37.55L68.64375 36.409374Q67.56563 37.753124 65.62813 37.753124Q63.8 37.753124 62.628124 36.253124Q61.471874 34.7375 61.471874 32.315624L61.471874 32.175ZM63.284374 32.378124Q63.284374 34.175 64.01875 35.190624Q64.76875 36.20625 66.08125 36.20625Q67.8 36.20625 68.58125 34.675L68.58125 29.815624Q67.78438 28.315624 66.09688 28.315624Q64.76875 28.315624 64.01875 29.346874Q63.284374 30.378124 63.284374 32.378124ZM77.3 37.753124Q75.15938 37.753124 73.8 36.346874Q72.45625 34.925 72.45625 32.565624L72.45625 32.221874Q72.45625 30.659374 73.05 29.425Q73.65938 28.190624 74.7375 27.4875Q75.81563 26.784374 77.08125 26.784374Q79.14375 26.784374 80.28438 28.14375Q81.425 29.503124 81.425 32.034374L81.425 32.784374L74.26875 32.784374Q74.3 34.346874 75.175 35.315624Q76.05 36.26875 77.39375 36.26875Q78.3625 36.26875 79.01875 35.878124Q79.69063 35.4875 80.19063 34.846874L81.28438 35.70625Q79.95625 37.753124 77.3 37.753124ZM77.08125 28.26875Q75.9875 28.26875 75.2375 29.065624Q74.50313 29.8625 74.33125 31.3L79.6125 31.3L79.6125 31.159374Q79.53438 29.784374 78.8625 29.034374Q78.20625 28.26875 77.08125 28.26875Z" fill-rule="nonzero"/></svg>